<svg xmlns="http://www.w3.org/2000/svg" width="101" height="102" viewBox="0 0 101 102" fill="none"><g id="_1"><path id="Vector" d="M50.6125 30.1156L64.4484 21.9426L76.3147 32.7514C76.3147 32.7514 72.5266 41.0589 72.5266 48.9662C72.5266 48.9662 72.2275 57.774 75.1184 66.2817C75.1184 66.2817 73.1247 67.6824 67.5387 66.3817C67.5387 66.3817 67.4219 73.3748 61.7534 75.3896C61.7534 75.3896 52.7403 77.7563 49.8872 83.7972C49.8872 83.7972 49.0691 79.3916 40.5131 76.3901C40.5131 76.3901 33.0159 74.0717 33.0331 66.7819C33.0331 66.7819 29.5441 67.9825 24.3569 65.6814C24.3569 65.6814 32.6928 51.8953 24.24 31.9165L35.9241 21.3423L50.6091 30.1156H50.6125Z" fill="#231F20"/><path id="Vector_2" d="M26.4365 32.3613L36.1406 23.626L50.4165 32.0508L64.1047 23.7709L74.094 32.934C74.094 32.934 67.4769 47.5412 72.9528 65.2982C72.9528 65.2982 70.9556 66.3712 65.7478 64.0804C65.7478 64.0804 66.6037 72.3155 60.1825 74.0336C60.1825 74.0336 52.9775 76.3244 49.98 80.7645C49.98 80.7645 48.6944 77.6146 42.6306 75.6102C42.6306 75.6102 32.6412 73.1573 34.9959 64.2977C34.9959 64.2977 32.3559 66.3746 26.7906 64.6565C26.7906 64.6565 34.085 52.5368 26.4331 32.3648L26.4365 32.3613Z" fill="#41AD49"/><path id="Vector_3" d="M52.9946 36.5911C55.9646 36.8085 56.1468 39.4615 56.1468 39.4615C56.2568 40.117 56.8343 39.8962 56.8343 39.8962C56.5799 38.913 57.0509 37.6779 57.0509 37.6779C60.8184 40.2964 59.6221 42.4044 59.6221 42.4044L60.3096 43.2048C60.2718 41.5695 61.1415 40.6242 61.1415 40.6242C63.7987 43.36 62.5543 45.4955 62.5543 45.4955C62.2999 45.8233 62.4821 46.1131 62.4821 46.1131C62.6643 46.4753 63.1696 47.3137 63.1696 47.3137C63.2074 46.7686 63.9293 46.4408 63.9293 46.4408C64.3624 46.258 65.0877 45.7853 65.0877 45.7853C66.174 49.4216 64.6718 50.5566 64.6718 50.5566C64.4896 50.9189 64.8677 52.0781 64.8677 52.0781L66.5349 51.4226C66.8237 55.2762 64.3246 55.604 64.3246 55.604C63.4205 55.8593 63.8159 56.5872 63.8159 56.5872L66.6037 56.3319C65.5174 59.1298 62.654 59.3506 62.654 59.3506C62.3996 59.4231 62.293 59.9682 62.293 59.9682L64.6477 60.8031C63.2727 63.2767 59.9762 62.5488 59.9762 62.5488L59.1443 63.3837C60.8837 63.8563 61.0624 64.7636 61.0624 64.7636C59.7596 65.8538 57.5493 65.0189 57.5493 65.0189C56.7896 64.8361 55.6655 65.7089 55.6655 65.7089C56.6796 66.944 57.0784 68.1446 57.0784 68.1446C54.6515 68.3999 52.9499 66.6542 52.9499 66.6542C52.3346 66.0712 50.7396 66.7991 50.7396 66.7991C50.9218 67.4167 51.898 68.8346 51.898 68.8346C49.4334 69.2348 48.0962 66.9095 48.0962 66.9095C47.2987 65.8918 46.429 66.1471 46.429 66.1471C47.1887 68.5828 46.9377 69.0554 46.9377 69.0554C44.0743 68.2205 44.2221 65.8573 44.2221 65.8573C44.1499 64.6567 42.194 64.0047 42.194 64.0047C42.5205 66.8405 42.0118 67.1683 42.0118 67.1683C39.6571 65.3881 40.1659 62.5867 40.1659 62.5867C40.2759 62.2141 40.0559 62.0761 40.0559 62.0761C39.7499 61.7587 39.6227 62.1486 39.6227 62.1486C38.7909 63.6769 38.2821 63.7493 38.2821 63.7493C36.0718 61.2033 37.4846 58.5882 37.4846 58.5882C37.8112 57.6084 37.0515 57.3151 37.0515 57.3151C36.1096 58.6227 35.4565 58.8055 35.4565 58.8055C34.1537 55.3142 35.9996 54.2964 35.9996 54.2964C36.3605 54.0411 36.3984 53.7513 36.3984 53.7513C36.5427 53.1683 35.9996 53.6409 35.9996 53.6409L34.3324 54.7691L33.8615 53.534C32.9918 51.2432 36.3605 50.2254 36.3605 50.2254C36.6493 49.7528 36.144 49.8977 36.144 49.8977C34.3324 50.4083 33.8615 51.1707 33.8615 51.1707L33.8237 51.0258C33.6415 47.2447 36.5393 46.8824 36.5393 46.8824C37.6634 46.7375 37.8077 46.2649 37.8077 46.2649C37.0102 46.2649 35.9962 45.9026 35.9962 45.9026C35.6352 45.8302 35.1265 45.9026 35.1265 45.9026C36.2849 42.5596 39.1827 43.7222 39.1827 43.7222C40.6334 43.5394 40.269 42.8494 40.269 42.8494C38.674 42.0145 37.5533 42.049 37.5533 42.049C37.7699 41.9041 37.9899 41.4315 37.9899 41.4315C38.7152 39.6133 40.9599 40.3033 40.9599 40.3033L41.7574 40.6656C42.5549 41.0278 43.5312 40.4482 43.5312 40.4482C43.4934 40.1929 41.3209 39.1407 41.3209 39.1407C43.7615 36.1599 46.9343 38.9958 46.9343 38.9958C47.2609 39.2511 48.0927 38.8854 48.0927 38.8854C46.4634 37.8297 47.5118 35.9771 47.5118 35.9771L49.179 36.5221C51.6437 37.357 51.7502 38.5956 51.7502 38.5956C51.9049 39.2718 53.053 38.9958 53.053 38.9958C52.5821 38.3058 52.9809 36.598 52.9809 36.598L52.9946 36.5911ZM61.2171 58.6227C61.2171 58.6227 61.5437 58.2949 61.2171 57.9327C61.2171 57.9327 59.6359 56.1422 60.7221 53.5581C60.7221 53.5581 60.9593 53.3063 61.3237 53.7513C61.7018 54.2102 61.6846 54.224 61.6846 54.224L61.9149 54.4482C61.9149 54.4482 60.643 52.5335 60.7805 50.805C60.7805 50.805 61.2515 50.4428 62.3377 51.2052C62.3377 51.2052 62.7709 50.4773 61.7224 50.0426C61.7224 50.0426 59.4399 49.0628 59.0412 47.3516C59.0412 47.3516 58.8968 46.841 61.0349 47.1343C61.0349 47.1343 61.3237 46.2994 60.4196 46.2614C60.4196 46.2614 58.0649 46.6237 56.9787 44.4812L58.608 43.9706C58.608 43.9706 58.7524 43.46 58.0271 43.6084C58.0271 43.6084 55.7102 44.6261 53.8265 43.0633C53.8265 43.0633 53.5377 42.6631 54.1874 42.3354L54.8405 42.0076C54.8405 42.0076 55.528 41.7178 54.8062 41.5729C54.8062 41.5729 54.5415 41.4246 54.0809 41.8627C54.0809 41.8627 53.1012 42.6631 52.0527 42.6252C52.0527 42.6252 51.5818 42.5148 51.073 42.808C51.073 42.808 50.6399 42.5527 51.1109 41.7903L51.5818 40.9554C51.5818 40.9554 51.8705 40.5552 50.9287 40.7001C50.9287 40.7001 49.7324 42.4458 47.7421 43.2806C47.7421 43.2806 47.089 43.7153 47.3812 42.8805C47.3812 42.8805 47.4912 42.4803 47.3812 41.8972C47.3812 41.8972 47.309 41.4591 47.3434 41.0244C47.3434 41.0244 46.2365 44.2052 43.9024 43.8982C43.9024 43.8982 43.758 43.7878 43.8302 43.3151L43.9024 42.8425L43.9746 42.2974C43.9746 42.2974 44.1121 41.8662 43.648 42.187L42.9949 42.6976C42.9949 42.6976 43.3215 44.8055 42.1252 46.3684C42.1252 46.3684 40.9668 46.0786 40.7124 44.7676C40.7124 44.7676 40.2793 44.9849 40.6024 45.6404C40.6024 45.6404 42.0152 47.3861 40.348 49.7114C40.348 49.7114 40.1659 50.0737 39.8393 49.5665L39.5127 49.0559C39.5127 49.0559 38.8252 48.0002 38.4609 48.8006C38.4609 48.8006 38.2718 49.1732 38.8527 49.5734C38.8527 49.5734 40.3824 50.5118 40.0559 52.982C40.0559 52.982 39.1862 53.4167 37.739 52.6922C37.739 52.6922 37.5809 53.9307 38.3199 54.3654C38.3199 54.3654 41.1799 55.4211 41.1455 57.8568C41.1455 57.8568 40.6024 58.2949 38.9352 57.6394C38.9352 57.6394 38.9352 57.9672 39.8771 58.15C39.8771 58.15 42.2696 58.4778 43.428 60.4029C43.428 60.4029 42.9949 60.7306 42.2318 60.8376C42.2318 60.8376 41.3552 60.8893 41.5065 61.1998C41.5065 61.1998 41.5787 61.5276 42.1596 61.1998C42.1596 61.1998 44.4696 60.2821 46.2434 62.29C46.2434 62.29 45.9649 62.5074 45.3462 62.8351L44.7309 63.1629L44.3321 63.4182L44.4765 63.5286C44.4765 63.5286 47.2643 62.6557 49.4746 63.0939C49.4746 63.0939 49.7187 63.1732 49.5846 63.4941C49.5846 63.4941 49.3096 64.2565 48.3162 64.8016C48.3162 64.8016 48.354 64.9603 48.8971 64.9465C48.8971 64.9465 50.2377 62.4004 52.5546 62.6937C52.5546 62.6937 53.3865 62.6592 52.9155 63.5286C52.9155 63.5286 52.1387 64.7912 52.699 64.6567C52.699 64.6567 53.1287 64.6774 53.1699 63.9287C53.1699 63.9287 53.0599 62.949 55.088 61.8553C55.088 61.8553 55.6037 61.5966 55.669 61.9657C55.669 61.9657 55.8512 63.0214 55.4868 63.7839C55.4868 63.7839 55.9577 64.0012 56.2843 63.1284C56.2843 63.1284 55.7034 61.4206 57.6971 59.8578C57.6971 59.8578 58.058 59.5335 58.1302 59.7474C58.2402 60.0751 58.2402 60.0751 58.2402 60.0751L58.639 61.1308C58.639 61.1308 58.7834 61.531 58.9655 61.3482C58.9655 61.3482 59.0687 61.4034 59.0034 60.5133C59.0034 60.5133 58.6046 57.8947 59.763 56.9874C59.763 56.9874 60.0827 56.7873 60.5605 57.7498C60.5605 57.7498 60.8871 58.5123 61.2137 58.6227H61.2171Z" fill="#231F20"/><path id="Vector_4" d="M39.4924 86.9854L69.0824 94.9342L66.3015 96.4384C66.3015 96.4384 66.1399 96.6005 65.4455 96.4108L64.7511 96.2245C64.7511 96.2245 39.1211 89.2176 38.1861 89.5108C38.1861 89.5108 30.2936 94.6409 19.6202 83.9529C19.6202 83.9529 24.3433 83.8977 27.4061 84.222C27.4061 84.222 27.5677 84.1427 27.4336 84.0081L27.2996 83.8736L27.0315 83.5251C27.0315 83.5251 27.0727 83.3492 26.5227 83.3388C25.8799 83.3216 25.8799 83.3664 25.8799 83.3664C25.8799 83.3664 13.9758 84.4946 8.99833 73.1096C8.99833 73.1096 9.47958 73.0303 9.93333 73.2166C9.93333 73.2166 11.1365 73.6478 12.6077 73.9687C12.6077 73.9687 16.0865 74.7208 17.128 75.4729C17.128 75.4729 17.7158 75.7696 17.6368 75.5005L17.5577 75.2314C17.5577 75.2314 17.2105 73.7548 14.8833 73.2166C14.8833 73.2166 4.04833 71.8193 2.89676 58.5024C2.89676 58.5024 8.86426 62.3975 9.58614 63.2013C9.58614 63.2013 9.98833 62.3975 8.7577 61.4556L7.52708 60.5172C7.52708 60.5172 -1.20074 54.5764 1.52864 44.6956L2.04426 43.0051C2.04426 43.0051 2.09926 42.7912 2.44645 43.219L2.79364 43.6503C4.79083 46.293 4.74614 46.3344 5.80833 48.1594C5.80833 48.1594 5.99395 48.3733 6.04895 48.1042C6.04895 48.1042 -1.25574 36.8814 5.88739 28.3945C5.88739 28.3945 7.11801 31.7237 7.4927 34.3009C7.4927 34.3009 8.10801 34.2457 7.81239 32.9036L7.51676 31.5616C7.51676 31.5616 6.12458 25.3309 7.24864 22.1362C7.24864 22.1362 8.58583 17.3822 12.6799 13.5182C12.6799 13.5182 13.3055 15.1914 12.1986 21.9499C12.1986 21.9499 12.2261 22.4329 12.5183 22.0051C12.5183 22.0051 12.6799 21.8188 12.7315 21.2806L12.7865 20.7424C12.7865 20.7424 14.5293 7.96374 25.5808 7.18749C25.5808 7.18749 26.1171 7.0357 25.8214 7.53594C25.8214 7.53594 24.8314 9.57488 24.938 10.3649C24.938 10.3649 31.1702 4.31366 37.2993 5.7109C37.2993 5.7109 33.9821 11.914 27.4818 14.5704C27.4818 14.5704 28.0971 14.9189 30.854 14.6256C30.854 14.6256 28.3136 22.6537 20.3386 24.051C20.3386 24.051 19.0015 29.0189 18.0905 30.1712C18.0905 30.1712 15.093 33.9041 14.959 34.1732C14.959 34.1732 14.9315 34.3871 15.1996 34.2802L15.4677 34.1732L16.2446 33.7178C16.2446 33.7178 17.073 37.9337 13.3296 44.6197C13.3296 44.6197 13.2746 44.9164 13.6252 44.5404C13.6252 44.5404 14.5086 43.602 14.8833 43.602C14.8833 43.602 15.9799 48.6493 14.9108 55.4699L15.0174 55.5251C15.0174 55.5251 15.4471 54.6661 15.5777 54.5867C15.5777 54.5867 21.8099 61.4073 19.2971 70.3462C19.2971 70.3462 19.1115 70.7222 19.4036 70.8016C19.4036 70.8016 19.9915 71.0983 20.1805 71.2052C20.1805 71.2052 20.6343 71.3674 20.5277 71.0189C20.5277 71.0189 20.1255 69.3285 20.3146 67.4482C20.3146 67.4482 20.5827 65.5956 20.3146 64.2259C20.3146 64.2259 20.1805 63.8223 20.3146 63.7947C20.3146 63.7947 20.2871 63.4739 20.9299 64.2259L21.5727 64.978C21.5727 64.978 27.0555 70.6981 27.9939 79.2092C27.9939 79.2092 28.5543 79.7474 29.3036 79.6922C29.3036 79.6922 29.5718 79.7715 29.3311 79.3437C29.3311 79.3437 28.5818 77.6774 28.2346 76.2836C28.2346 76.2836 27.8049 74.4862 27.4061 73.6513C27.4061 73.6513 27.004 73.0889 27.5127 73.22L28.0215 73.3546C28.0215 73.3546 38.3202 76.0111 39.4993 86.9958L39.4924 86.9854Z" fill="#231F20"/><path id="Vector_5" d="M53.9572 39.1821C53.6547 38.3955 53.6547 37.8746 53.6547 37.8746C53.6375 37.4261 53.7441 37.4261 53.7441 37.4261C55.8135 37.9091 55.6003 40.2551 55.6003 40.2551C55.8753 40.4379 56.226 40.6484 56.226 40.6484C56.5456 40.9175 57.295 41.2038 57.295 41.2038L57.5253 41.2763C57.7556 41.3487 57.491 39.6996 57.491 39.6996L57.4738 39.3788C57.4566 39.0579 57.546 39.0752 57.546 39.0752C59.5603 40.0964 58.9381 41.9559 58.9381 41.9559C58.8316 42.4734 59.0825 42.6356 59.0825 42.6356C59.2441 42.777 60.3853 44.0328 60.3853 44.0328L60.5469 44.2467C60.7085 44.4606 60.7428 44.3364 60.7428 44.3364C60.8322 42.0974 61.1347 41.8317 61.1347 41.8317C61.2413 41.4729 61.475 41.9214 61.475 41.9214C63.1353 44.1053 61.9219 45.5025 61.9219 45.5025C61.6538 45.8061 62.0113 46.327 62.0113 46.327C62.245 46.7962 62.5441 47.4586 62.5441 47.4586C62.7916 48.1038 63.2075 48.4384 63.2075 48.4384C63.8847 46.917 64.6341 46.81 64.6341 46.81C64.8128 46.7928 64.8128 47.3827 64.8128 47.3827L64.9022 48.5281C64.9916 49.6735 63.9913 50.1945 63.9913 50.1945L64.0463 51.2847C64.1185 52.537 64.2422 53.1821 64.2422 53.1821C64.4381 53.1821 65.0638 52.5922 65.0638 52.5922C65.5278 52.2161 65.8853 52.4473 65.8853 52.4473C65.9403 54.9175 64.335 55.0796 64.335 55.0796C63.4447 55.1866 63.3553 55.8317 63.3553 55.8317L63.0528 57.3359C63.2144 57.3014 64.8197 56.9771 64.8197 56.9771L65.1944 56.9047C65.5691 56.8322 65.4453 57.0668 65.4453 57.0668C64.6788 58.6435 63.0391 58.571 63.0391 58.571C61.9322 58.7332 61.3616 60.4133 61.3616 60.4133C61.4338 60.5375 61.6813 60.5547 61.6813 60.5547C62.2347 60.5202 63.2522 60.8238 63.2522 60.8238L63.5375 60.8963C63.8228 60.9687 63.6441 61.1102 63.6441 61.1102C63.3038 62.2728 60.3097 61.9692 60.3097 61.9692L59.6841 62.435L59.0791 62.8662C58.4741 63.2975 58.2231 63.7977 58.2231 63.7977C59.99 63.8322 60.2031 64.5153 60.2031 64.5153C59.6325 64.9811 58.5085 64.6223 58.5085 64.6223C58.0788 64.4981 57.0647 64.3704 57.0647 64.3704C56.6556 64.712 55.8341 64.9604 55.8341 64.9604L55.2463 65.1743C54.6584 65.3882 54.765 65.4779 54.765 65.4779C56.0506 66.7302 56.1194 67.4098 56.1194 67.4098C53.9435 67.6065 53.2491 65.8332 53.2491 65.8332C52.0906 65.816 50.3409 66.1541 50.3409 66.1541L50.0006 66.1713C49.6603 66.1886 49.8769 66.4749 49.8769 66.4749L50.5369 67.7652L50.6434 67.9066C50.75 68.0481 50.6263 68.086 50.6263 68.086C49.8425 68.193 48.9316 66.8854 48.9316 66.8854L48.4675 66.33C48.0034 65.7746 47.4878 65.7573 47.4878 65.7573L46.0063 65.3985L45.721 65.2916C45.4356 65.1846 45.6659 65.6849 45.6659 65.6849C46.5941 67.3857 46.3809 67.9239 46.3809 67.9239C44.8306 67.6375 44.6691 65.0777 44.6691 65.0777C44.6691 64.8086 44.3494 64.6844 44.3494 64.6844C43.7444 64.3083 41.6372 62.9111 41.6372 62.9111C42.0291 65.0777 41.8881 65.7401 41.8881 65.7401C41.8709 65.954 41.7644 65.9022 41.7644 65.9022C40.2313 64.7223 40.9256 62.7869 40.9256 62.7869C41.2659 62.1969 40.7469 61.8036 40.7469 61.8036C40.1419 61.2309 39.8359 60.9273 39.8359 60.9273C39.5678 60.4616 39.4063 60.5513 39.4063 60.5513C39.1038 62.7006 38.4266 62.6109 38.4266 62.6109C37.1616 61.2137 37.8559 59.192 37.8559 59.192C38.4816 57.9569 37.1788 56.1491 37.1788 56.1491C36.3778 57.9742 35.7866 57.6533 35.7866 57.6533C35.5013 56.9357 35.7522 55.9525 35.7522 55.9525C35.8244 55.3246 36.4294 55.021 36.4294 55.021C36.9828 54.6277 37 53.6789 37 53.6789L36.8934 51.6573C35.4325 53.9135 34.6453 53.4098 34.6453 53.4098C33.7894 52.3196 35.2159 51.4779 35.2159 51.4779C35.4291 51.3157 36.7491 50.4946 36.7491 50.4946C37.4263 50.0841 37.4263 49.2043 37.4263 49.2043L37.4813 48.8455C37.5363 48.4867 36.9106 48.88 36.9106 48.88C36.4809 49.1319 35.1988 49.5769 35.1988 49.5769L34.8413 49.6666C34.4838 49.7563 34.5903 49.5217 34.5903 49.5217C34.9306 47.4345 37.55 47.2137 37.55 47.2137C38.1756 47.0515 38.4609 46.4616 38.4609 46.4616C38.5847 45.9958 38.9078 45.6922 38.9078 45.6922C39.0488 45.4404 38.9078 45.1747 38.9078 45.1747C37.3025 45.8716 36.1784 45.2644 36.1784 45.2644C36.7319 43.5636 38.9972 44.2812 38.9972 44.2812C39.64 44.3882 40.0834 43.9052 40.0834 43.9052C40.245 43.781 40.6541 43.2428 40.6541 43.2428L40.9738 42.9219C41.2934 42.6011 41.51 42.2595 41.51 42.2595C38.9044 42.1871 38.7634 41.5247 38.7634 41.5247C39.2103 40.2896 40.9944 40.8795 40.9944 40.8795C41.565 41.0589 42.5825 41.3798 42.5825 41.3798C43.1703 41.4867 43.7238 41.021 43.7238 41.021C43.8647 40.8588 44.2944 40.7174 44.2944 40.7174C44.4731 40.6829 44.7756 40.4483 44.7756 40.4483C45.0438 40.3413 44.3838 40.1067 44.3838 40.1067C43.9747 39.9101 42.5825 39.1407 42.5825 39.1407C42.3694 39.0683 42.4381 39.0338 42.4381 39.0338C43.4556 37.6745 45.3291 38.9096 45.3291 38.9096L46.13 39.3029C46.9309 39.6962 47.3606 39.5547 47.3606 39.5547C47.8075 39.4478 48.4847 39.465 48.4847 39.465C49.0003 39.4478 49.3578 39.1959 49.3578 39.1959C47.4122 37.7469 48.0928 36.7603 48.0928 36.7603C48.6463 37.0121 49.6981 37.3502 49.6981 37.3502C51.1969 37.7814 51.2863 38.9958 51.2863 38.9958C51.3584 39.2649 51.7159 39.5133 51.7159 39.5133C52.5891 39.4788 54.0534 39.7272 54.0534 39.7272C54.1084 39.5133 53.9813 39.1718 53.9813 39.1718L53.9572 39.1821ZM52.6647 40.4172C52.6647 40.4172 50.6778 39.6134 50.1725 40.4414C50.1725 40.4414 49.6913 41.7938 48.2303 42.2319C48.2303 42.2319 47.4088 41.5454 48.5741 40.0308C48.5741 40.0308 46.7694 39.848 46.2194 41.4315C46.2194 41.4315 45.7863 43.1289 44.6897 43.0358C44.6897 43.0358 44.6656 42.4838 44.7825 41.9594L44.8959 41.4315C44.8959 41.4315 44.9647 41.0865 44.9406 40.8795C44.9406 40.8795 42.335 41.8214 42.1769 42.9426C42.1769 42.9426 42.8609 44.019 42.0153 45.4197C42.0153 45.4197 41.2831 45.5335 41.125 43.4463C41.125 43.4463 39.8669 44.2502 39.8463 45.2368C39.8463 45.2368 39.8016 45.6267 40.0972 45.8337C40.0972 45.8337 41.0116 46.3167 40.2106 48.7938C40.2106 48.7938 39.7981 48.7248 39.4338 48.0382L38.7497 46.9377C38.7497 46.9377 38.5434 47.4655 38.3613 47.8105C38.3613 47.8105 37.6772 49.0491 38.3372 49.8046C38.3372 49.8046 39.7088 50.7672 39.4338 52.4197C39.4338 52.4197 38.6328 52.8785 37.2853 51.088L37.1925 53.2442C37.1925 53.2442 37.0997 54.7346 38.2203 54.9416C38.2203 54.9416 40.1625 55.4453 40.3241 57.26C40.3241 57.26 39.5231 57.605 37.8319 56.0905C37.8319 56.0905 37.8319 56.4562 38.0828 56.9392C38.0828 56.9392 38.4266 57.4222 38.4266 58.0397C38.4266 58.0397 38.4506 58.6607 39.1794 58.7504C39.1794 58.7504 40.3206 58.7263 40.9634 59.1161C40.9634 59.1161 41.9913 59.4163 42.1975 60.0338C42.1975 60.0338 42.1528 60.4685 39.9116 60.3098L41.0769 61.7553C41.0769 61.7553 41.3038 62.2832 42.0153 62.0072C42.0153 62.0072 43.2253 60.9066 45.2156 62.0762C45.2156 62.0762 45.4906 62.1452 45.2844 62.2832L45.0781 62.4212C45.0781 62.4212 43.9369 62.9732 42.9984 63.1077C42.9984 63.1077 44.0263 64.3463 45.0094 64.2083C45.0094 64.2083 47.0444 63.1974 48.5294 63.7046C48.5294 63.7046 48.7803 63.7736 48.4606 63.9806C48.4606 63.9806 47.6391 64.7154 46.7247 64.8983C46.7247 64.8983 47.5016 65.195 47.9828 65.3571L48.4641 65.5158C48.4641 65.5158 48.99 65.6297 49.4472 65.54C49.4472 65.54 50.0625 63.2216 52.1216 63.3147C52.1216 63.3147 52.4413 63.2699 52.2831 63.5217L52.1216 63.7736C52.1216 63.7736 51.4375 64.8293 51.2313 65.2433C51.2313 65.2433 52.6716 65.471 53.5378 64.8293C53.5378 64.8293 53.8334 62.9249 54.8853 62.6282C54.8853 62.6282 55.2497 62.88 54.8406 63.7977C54.8406 63.7977 54.521 64.4636 54.7031 64.7844C54.7031 64.7844 55.5488 64.6706 56.9203 63.7287C56.9203 63.7287 57.216 63.294 56.965 62.949C56.965 62.949 56.5078 62.0313 57.3088 61.2516L57.6972 60.8169C57.6972 60.8169 57.9035 60.6341 57.9722 60.9791C57.9722 60.9791 58.2025 61.7588 58.0856 62.7696L59.6153 61.6449C59.6153 61.6449 59.6841 60.8204 59.5913 60.3132C59.5913 60.3132 59.385 59.1679 59.66 58.6849C59.66 58.6849 59.935 57.9742 60.1859 58.4537C60.1859 58.4537 60.7566 59.3266 60.8013 59.9199C60.8013 59.9199 60.9594 60.0579 61.0969 59.8509L61.2344 59.6439C61.2344 59.6439 61.6675 58.9091 61.8978 58.6366C61.8978 58.6366 62.1935 58.1329 61.7603 57.5602L61.3272 56.9875C61.3272 56.9875 60.9388 56.7115 61.0316 54.9692C61.0316 54.9692 61.0075 54.4862 61.3272 54.7864C61.3272 54.7864 61.6813 55.0762 61.8531 55.3384C61.8531 55.3384 62.4031 56.2112 62.5853 56.3251C62.5853 56.3251 62.7675 55.7972 62.8363 55.4074C62.8363 55.4074 62.905 54.8554 62.9978 54.7208C62.9978 54.7208 61.8703 53.3926 61.5575 51.8539C61.5575 51.8539 61.4441 51.4192 61.97 51.7849L62.496 52.1506L63.5031 52.9544C63.5031 52.9544 63.7335 51.3261 63.07 50.0185C63.07 50.0185 60.6466 48.9628 60.0519 47.8381C60.0519 47.8381 60.3716 47.4241 61.1931 47.7691C61.1931 47.7691 61.9941 48.1141 62.1969 48.09C62.1969 48.09 61.8772 47.1964 61.695 46.7376C61.695 46.7376 61.4888 46.5547 61.4681 46.1856C61.4681 46.1856 61.2378 45.43 60.736 45.4507L60.2341 45.4749L59.2063 45.568C59.2063 45.568 58.5291 45.675 58.1338 45.085C58.1338 45.085 57.9413 44.7987 58.1338 44.74C58.3606 44.671 58.3606 44.6711 58.3606 44.6711L59.8491 44.3019L58.5875 42.9047C58.5875 42.9047 58.175 42.8115 57.6972 42.9495L57.216 43.0875C57.216 43.0875 56.0163 43.6119 55.1603 43.0634C55.1603 43.0634 54.8647 42.8874 55.1363 42.6977C55.1363 42.6977 55.7997 41.918 57.1919 41.849C57.1919 41.849 56.8963 41.435 55.7963 41.1141C55.7963 41.1141 54.6756 40.6691 54.105 41.021C53.6788 41.2866 53.4588 41.4626 53.4588 41.4626C53.4588 41.4626 52.7575 42.0525 51.9566 41.9387C51.9566 41.9387 51.6128 41.9628 51.8638 41.5488C51.8638 41.5488 52.2075 40.883 52.6647 40.4241V40.4172Z" fill="#FFF200"/><path id="Vector_6" d="M52.7299 47.1103C52.7299 47.0448 52.7333 47.0068 52.7333 47.0068C52.7333 47.0068 52.723 47.0862 52.7299 47.1103Z" fill="#231F20"/><path id="Vector_7" d="M57.7351 51.3538C57.7351 51.3538 57.4463 49.6323 55.7035 49.3666L56.4529 48.1315C56.4529 48.1315 55.731 47.4346 55.3288 47.3794L54.5279 48.5076C54.5279 48.5076 54.2322 47.8348 54.2597 47.1379C54.2597 47.1379 54.3388 46.4135 53.9401 45.8477C53.9401 45.8477 52.816 46.9758 52.7644 47.0827C52.7472 47.1207 52.7369 47.1207 52.7335 47.1069C52.7335 47.2345 52.7369 47.4622 52.7919 47.7279L52.871 48.1315L53.4072 50.4948L53.4863 50.9778C53.4863 50.9778 53.3247 51.2745 53.0841 51.1123C53.0841 51.1123 52.7644 50.6569 52.1491 51.2745C52.1491 51.2745 51.6679 50.4706 51.4272 49.96C51.4272 49.96 51.4547 49.584 51.1591 49.6909L50.8635 49.7979C50.8635 49.7979 50.1141 49.8531 50.1932 50.0118L50.2722 50.1739C50.2722 50.1739 50.3513 50.8467 50.3513 50.8984C50.3513 50.8984 50.5129 51.4608 50.0557 51.3021C50.0557 51.3021 49.681 50.8984 49.4129 51.409C49.4129 51.409 49.0107 51.7299 48.636 50.9778L48.5019 50.5741C48.5019 50.5741 47.3263 51.5401 45.0232 51.1641L44.9957 51.4608C44.9957 51.4608 45.7966 53.1271 44.4079 53.4756C44.4079 53.4756 42.696 53.7964 43.0157 50.926C43.0157 50.926 42.6238 51.1848 42.3213 51.9196C42.3213 51.9196 41.3863 54.069 43.0707 55.1419C43.0707 55.1419 45.0782 56.0285 46.5769 53.1271C46.5769 53.1271 46.7901 52.4302 47.4604 52.7787C47.4604 52.7787 48.1547 53.2893 48.7701 53.0754C48.7701 53.0754 49.1172 52.7787 49.3579 52.996C49.3579 52.996 49.8013 53.2927 50.4097 52.8891C50.4097 52.8891 51.1763 52.5406 51.6576 52.62C51.6576 52.62 51.8913 52.6579 52.1972 52.6959C52.2213 52.6959 52.2488 52.7028 52.2729 52.7028L51.8741 53.1582L51.0182 52.9443L50.5644 53.3755L51.0182 53.8861C51.0182 53.8861 51.3654 53.8861 51.4719 53.7792L51.8741 53.4583C51.8741 53.4583 52.3829 53.6722 52.2213 53.9413C52.2213 53.9413 50.0007 55.6318 48.3404 53.6722C48.3404 53.6722 47.8866 55.5524 48.6876 56.1424C48.6876 56.1424 49.2926 56.6254 50.4063 56.3563L57.1129 53.0788C57.1129 53.0788 57.9516 52.7235 57.7282 51.3607L57.7351 51.3538ZM53.8026 52.9926C53.8026 52.9926 53.2663 53.3686 52.9191 53.448C52.9191 53.448 52.8916 52.8408 52.2901 52.6993C52.5891 52.7338 52.9363 52.7614 53.1872 52.7511C53.1872 52.7511 54.0157 52.8856 54.7135 52.0542L54.9541 52.2681C54.9541 52.2681 54.3663 52.5648 53.8026 52.9926ZM54.9026 49.7703C54.9026 49.7703 54.6344 49.4218 54.6619 48.8043C54.6619 48.8043 55.3838 49.2079 55.3563 49.4494L54.9026 49.7703Z" fill="#231F20"/><path id="Vector_8" d="M53.1631 47.355L53.7509 46.7375C53.7509 46.7375 53.885 46.6582 53.9365 47.5965C53.9365 47.5965 53.9365 48.2141 54.2047 49.1283C54.2047 49.1283 55.2737 51.5433 53.775 52.2954C53.775 52.2954 53.5997 52.361 52.9844 52.1609C52.9844 52.1609 52.3037 51.8262 51.9531 52.323C51.9531 52.323 51.685 52.6715 51.0972 52.1367C51.0972 52.1367 50.0281 52.9406 49.5984 52.5921C49.5984 52.5921 49.265 52.3782 48.7975 52.5645C48.7975 52.5645 47.9965 53.0475 47.5256 52.2023C47.5256 52.2023 46.79 52.323 46.5768 52.323C46.5768 52.323 45.5318 54.8208 43.8475 54.9277C43.8475 54.9277 41.6715 54.7759 42.5722 52.1609C42.5722 52.1609 42.6615 52.7267 42.9125 53.1269C42.9125 53.1269 44.064 55.1554 45.6418 52.7232V51.6744C45.6418 51.6744 47.0856 51.8883 48.1581 51.1638C48.1581 51.1638 48.8525 52.3196 49.4162 51.8883C49.4162 51.8883 49.8459 51.3122 50.0969 51.6882C50.0969 51.6882 50.7672 52.0505 50.7534 51.2466C50.7397 50.5187 50.6984 50.5221 50.6984 50.5221L50.6709 50.2254C50.6709 50.2254 51.2484 49.8942 51.3412 50.5221C51.4203 51.0741 51.4753 51.1673 51.4753 51.1673C51.4753 51.1673 51.905 52.4817 52.5994 51.4088C52.5994 51.4088 52.5994 51.1121 52.895 51.4088C52.895 51.4088 53.2972 51.947 53.6719 51.4364L53.9915 51.0051L53.1631 47.355ZM57.0956 52.6439L56.3737 52.9923C55.8925 53.2338 53.4828 54.5758 53.4828 54.5758L52.84 54.8967C52.1972 55.2175 50.8875 55.7557 50.8875 55.7557L50.0315 55.9972C49.1756 56.2387 48.9625 55.7833 48.9625 55.7833C48.5878 55.4866 48.5878 55.1106 48.5878 55.1106L48.6153 54.5724C48.6703 54.3309 48.9109 54.6 48.9109 54.6C50.4165 55.4176 52.4962 54.2791 52.4962 54.2791C53.6478 53.3649 56.4012 52.0781 56.4012 52.0781C56.4287 51.7296 55.7069 51.8366 55.7069 51.8366C54.985 51.8918 55.0365 50.843 55.0365 50.843C55.1878 49.5285 56.2672 50.0909 56.2672 50.0909C57.9275 51.0569 57.0956 52.6404 57.0956 52.6404V52.6439ZM55.999 50.843C55.999 50.843 55.999 50.5739 55.6794 50.5463C55.6794 50.5463 55.2772 51.1638 55.7069 51.2708L56.0025 51.0569V50.843H55.999ZM52.4653 53.3132C52.4928 53.1269 52.2522 53.0717 52.2522 53.0717L52.1972 53.2856C52.3312 53.5271 52.4653 53.3132 52.4653 53.3132ZM51.0215 53.396C51.0215 53.396 51.1006 53.6651 51.2072 53.5581L51.3137 53.4512C51.3137 53.4512 51.0731 53.1545 51.0181 53.396H51.0215ZM55.5694 48.6971L55.81 48.2141C55.7034 47.7587 55.3562 48.1347 55.3562 48.1347L55.1947 48.566L55.5694 48.7005V48.6971Z" fill="#FFF200"/><path id="Vector_9" d="M11.2118 48.0795C11.2118 48.0795 12.3358 46.7892 12.5765 45.8232L11.1602 47.4068C11.1602 47.4068 10.813 47.5931 11.2152 48.0795H11.2118Z" fill="#61876A"/><path id="Vector_10" d="M25.364 11.8308C25.364 11.8308 29.0284 6.81106 35.2365 6.75586C35.2365 6.75586 31.6237 11.7066 26.8628 13.6041C26.8628 13.6041 26.7012 13.3074 27.265 12.3414C27.265 12.3414 27.8253 11.4547 27.3715 11.5375L25.5806 11.8584L25.3675 11.8308H25.364Z" fill="#41AD49"/><path id="Vector_11" d="M16.1619 22.6533C16.1619 22.6533 21.7272 20.397 24.6147 16.7194C24.6147 16.7194 26.1409 16.0742 28.7087 16.0225C28.7087 16.0225 25.6047 23.8367 16.1619 22.6533Z" fill="#41AD49"/><path id="Vector_12" d="M15.708 21.3077C15.708 21.3077 17.9114 14.2283 25.3399 13.0898C25.3399 13.0898 23.7896 18.5684 15.708 21.3077Z" fill="#41AD49"/><path id="Vector_13" d="M23.4391 8.77051C23.4391 8.77051 15.5741 10.7577 14.2644 19.9415C14.2644 19.9415 14.7457 19.7 15.0653 19.0825C15.0653 19.0825 16.2169 16.05 20.256 13.4694C20.256 13.4694 23.4666 11.32 23.4391 8.77051Z" fill="#41AD49"/><path id="Vector_14" d="M11.3734 16.8262C11.3734 16.8262 6.42342 21.9528 8.53748 29.7153C8.53748 29.7153 8.72311 28.4802 8.99123 27.9696C8.99123 27.9696 11.8547 22.598 11.3734 16.8262Z" fill="#41AD49"/><path id="Vector_15" d="M14.4499 21.6597C14.4499 21.6597 10.2768 25.0165 9.68896 31.0022C9.68896 31.0022 10.2768 30.7607 10.5174 30.4123C10.5174 30.4123 10.758 30.2501 10.7855 30.5986L10.813 30.947C10.813 30.947 10.8405 31.6439 11.0262 31.4852L11.2118 31.3231C11.2118 31.3231 14.9312 28.0732 14.4499 21.6562V21.6597Z" fill="#41AD49"/><path id="Vector_16" d="M15.8147 24.1543V25.0133L17.2069 24.2095L15.8147 24.1543Z" fill="#41AD49"/><path id="Vector_17" d="M11.8718 35.2972C11.8718 35.2972 17.9012 30.6536 18.6506 25.2819C18.6506 25.2819 17.6778 25.1923 15.3231 27.0449C15.3231 27.0449 13.7178 30.8675 11.3631 32.8546C11.3631 32.8546 11.2015 32.8822 11.3081 33.417L11.4147 33.9552C11.4147 33.9552 11.7103 35.0281 11.8684 35.2972H11.8718Z" fill="#41AD49"/><path id="Vector_18" d="M5.32681 31.1094C5.32681 31.1094 1.15369 37.2848 6.50244 46.065L6.609 45.5027C6.609 45.5027 5.45744 42.9531 5.91463 40.0793C5.91463 40.0793 7.27931 34.9768 5.32681 31.1128V31.1094Z" fill="#41AD49"/><path id="Vector_19" d="M9.71303 33.1514C9.71303 33.1514 5.78053 39.1647 7.38584 44.0809L7.73303 43.4633C7.73303 43.4633 8.18678 43.5427 8.50991 44.0015C8.50991 44.0015 8.77803 44.3224 9.07022 44.4845C9.07022 44.4845 12.4149 40.9138 9.71303 33.1548V33.1514Z" fill="#41AD49"/><path id="Vector_20" d="M15.1168 35.5146C15.1168 35.5146 15.1958 42.4146 10.4624 46.6305C10.4624 46.6305 9.28676 46.0129 9.98114 45.1815C9.98114 45.1815 11.2668 43.8912 11.4524 42.1731C11.4524 42.1731 11.693 38.523 12.604 37.5018C12.604 37.5018 13.4049 36.2391 15.1202 35.5146H15.1168Z" fill="#41AD49"/><path id="Vector_21" d="M13.8622 60.2169C13.8622 60.2169 14.3984 58.1228 14.3984 57.1016L13.4084 59.4372C13.4084 59.4372 13.2228 59.7856 13.4634 59.9754L13.704 60.1617L13.8656 60.2169H13.8622Z" fill="#41AD49"/><path id="Vector_22" d="M12.1743 58.7644L12.3084 58.8989C12.3084 58.8989 15.6256 54.2276 14.1268 45.7959C14.1268 45.7959 12.4149 47.0862 11.7446 49.8496C11.7446 49.8496 12.7621 53.8757 12.1743 58.7644Z" fill="#41AD49"/><path id="Vector_23" d="M10.356 56.9669L11.1054 57.612C11.1054 57.612 12.5491 51.4642 8.40348 45.851C8.40348 45.851 8.05629 45.3956 7.89473 45.9062C7.89473 45.9062 5.7291 51.0605 9.74067 58.5815L10.356 56.9703V56.9669Z" fill="#41AD49"/><path id="Vector_24" d="M2.51829 45.4473C2.51829 45.4473 0.503913 54.4862 8.43079 59.7854C8.43079 59.7854 8.64391 59.5439 8.32423 58.8987C8.32423 58.8987 7.44079 56.8563 7.0386 55.4625L6.63641 54.0653C6.63641 54.0653 5.0861 47.7001 2.51485 45.4473H2.51829Z" fill="#41AD49"/><path id="Vector_25" d="M15.7871 56.5356C15.7871 56.5356 20.5481 62.8733 18.3034 70.201L17.8221 70.1216C17.8221 70.1216 17.3718 67.3582 16.6637 65.547C15.9693 63.7737 15.8971 63.6219 15.8971 63.6219C15.8971 63.6219 14.6837 61.2311 15.1478 59.0852L15.7906 56.5356H15.7871Z" fill="#41AD49"/><path id="Vector_26" d="M10.9436 59.2749C10.9436 59.2749 9.28332 65.5849 15.2783 70.2562L15.1168 69.8008C15.1168 69.8008 14.7696 69.2109 15.598 69.4248L16.2133 69.6111C16.2133 69.6111 16.5605 69.7732 16.4539 69.342L16.3474 68.9107C16.3474 68.9107 15.1718 62.1971 10.9436 59.2715V59.2749Z" fill="#41AD49"/><path id="Vector_27" d="M4.30933 60.8857C4.30933 60.8857 4.89714 63.0075 5.0587 63.8941C5.0587 63.8941 6.71901 69.452 14.5565 72.0016L12.2293 69.1277C12.2293 69.1277 11.5865 68.2687 11.3184 67.5442C11.3184 67.5442 9.39339 63.5974 4.30933 60.8857Z" fill="#41AD49"/><path id="Vector_28" d="M21.3249 66.2021C21.3249 66.2021 26.7561 72.6743 26.8627 78.4185C26.8627 78.4185 26.2199 77.4249 24.1058 74.8995C24.1058 74.8995 21.1358 71.5979 21.2974 68.9932C21.2974 68.9932 21.4589 67.5511 21.3249 66.2021Z" fill="#41AD49"/><path id="Vector_29" d="M17.0178 71.4395C17.0178 71.4395 18.9978 78.3394 25.4706 80.5163C25.4706 80.5163 24.9894 78.9604 25.0169 78.7189L25.6322 78.6119C25.6322 78.6119 23.4116 75.2551 22.1809 74.2098C22.1809 74.2098 20.3625 72.3847 17.0178 71.4429V71.4395Z" fill="#41AD49"/><path id="Vector_30" d="M25.2849 82.1238C25.2849 82.1238 16.5915 83.2106 11.4524 74.7271C11.4524 74.7271 14.9586 74.6857 18.7296 77.5595C18.7296 77.5595 23.8927 81.2648 25.2849 82.1238Z" fill="#41AD49"/><path id="Vector_31" d="M38.313 88.4613C38.313 88.4613 37.0274 82.2582 26.488 80.1641C26.488 80.1641 27.1824 85.5081 38.313 88.4613Z" fill="#41AD49"/><path id="Vector_32" d="M37.9933 85.0254C37.9933 85.0254 36.5495 77.3181 28.8186 74.7134C28.8186 74.7134 29.4064 78.1772 31.1458 80.2161C31.1458 80.2161 33.9542 81.0234 37.9933 85.0219V85.0254Z" fill="#41AD49"/><path id="Vector_33" d="M36.2815 89.2415C36.2815 89.2415 29.7262 91.7392 22.3975 85.0808C22.3975 85.0808 27.0003 84.1148 33.0468 87.7131C33.0468 87.7131 33.3665 88.034 35.0784 88.5722C35.0784 88.5722 35.9618 88.7585 36.2815 89.2449V89.2415Z" fill="#41AD49"/><path id="Vector_34" d="M39.7843 88.1408L66.5899 95.2305C66.5899 95.2305 66.0296 95.9033 65.2252 95.6342L39.5952 88.7618C39.5952 88.7618 39.1655 88.817 39.3271 88.3858C39.3271 88.3858 39.3546 87.9028 39.7808 88.1443L39.7843 88.1408Z" fill="#41AD49"/><path id="Vector_35" d="M89.0025 23.1292L88.4868 22.7704C88.4868 22.7704 87.8131 10.5816 76.2253 7.72505L77.5315 11.7753L77.4112 11.934C77.4112 11.934 71.4815 4.74773 65.27 5.90002C65.27 5.90002 65.7409 11.1302 72.4234 14.6216L72.2309 14.7527C72.2309 14.7527 71.399 14.3939 70.6084 14.5146C70.6084 14.5146 71.5984 21.0247 81.2509 24.7162V24.9163C81.2509 24.9163 80.5772 24.6782 80.8144 25.1543C80.8144 25.1543 83.8187 34.1967 89.714 37.6191C89.714 37.6191 89.9994 38.109 89.6453 38.1883C89.6453 38.1883 86.6031 35.5733 85.1972 34.8798C85.1972 34.8798 84.0181 42.0696 90.8209 48.8177C90.8209 48.8177 90.5837 49.6905 90.0681 50.1287C90.0681 50.1287 88.7619 45.9197 86.6272 45.1676C86.6272 45.1676 84.0972 53.4269 88.1294 60.7719C88.1294 60.7719 87.5759 61.3273 87.2597 61.5274C87.2597 61.5274 87.0225 60.5752 87.0225 60.0198C87.0225 60.0198 86.6272 56.9251 85.4 56.4076C85.4 56.4076 80.4947 61.7275 81.1684 71.7324C81.1684 71.7324 80.8109 72.0912 80.3365 72.0119C80.3365 72.0119 80.7318 68.7965 79.5837 65.7778C79.5837 65.7778 76.1428 70.0661 75.8265 70.6595C75.8265 70.6595 72.8462 74.2923 72.6606 79.6708C72.6606 79.6708 72.1862 79.6708 71.9868 79.7881C71.9868 79.7881 71.5125 79.9882 71.1962 79.7088C71.1962 79.7088 72.8565 77.4456 73.3309 73.3953C73.3309 73.3953 65.7375 74.7857 61.5025 85.9015C61.5025 85.9015 61.2859 87.1228 60.5125 87.1711L40.4959 91.9355C40.4959 91.9355 32.4246 93.8399 32.1084 94.1193C32.1084 94.1193 34.4012 95.7477 34.9959 96.3825L61.8153 89.593C61.8153 89.593 73.9634 94.3988 80.5668 84.5905C80.5668 84.5905 79.539 84.5111 79.46 84.4697C79.46 84.4697 77.4422 83.9143 77.205 83.9143C77.205 83.9143 82.9422 83.0001 85.6303 81.5718C85.6303 81.5718 90.1025 79.1257 91.1681 75.2583C91.1681 75.2583 89.3084 74.3061 83.5747 76.0932C83.5747 76.0932 83.3375 76.0139 83.6537 75.5378L83.97 75.0617L84.2484 74.5442C84.2484 74.5442 88.0469 75.4584 94.1381 69.7004C94.1381 69.7004 97.7372 66.7231 98.0947 61.5999C98.0947 61.5999 98.3903 60.4579 98.1531 59.7058C98.1531 59.7058 96.51 61.5205 95.6815 61.8793C95.6815 61.8793 92.9522 63.1489 91.529 64.5772C91.529 64.5772 91.2919 64.0597 91.5703 63.625C91.5703 63.625 91.7284 63.4249 91.7284 63.2283V63.111C91.7284 63.111 94.1828 62.7936 96.5547 59.6161C96.5547 59.6161 101.381 53.382 99.6003 45.6817C99.6003 45.6817 97.7268 47.0341 95.4822 49.8803C95.4822 49.8803 95.0937 49.2145 95.1728 48.659C95.1728 48.659 102.728 41.2347 96.1215 30.4776C96.1215 30.4776 94.2619 32.1854 93.8665 35.4387C93.8665 35.4387 93.3131 35.7181 93.6294 34.9212C93.6294 34.9212 98.4556 23.4086 89.0815 15.0701C89.0815 15.0701 88.2909 18.5649 89.0025 23.1292Z" fill="#231F20"/><path id="Vector_36" d="M76.3285 12.5037C76.3285 12.5037 71.5126 6.30068 66.8032 7.18732C66.8032 7.18732 67.9273 11.9138 75.0429 14.5703L74.3726 12.3692C74.3726 12.3692 74.7748 12.207 75.4176 12.3692C75.4176 12.3692 76.0054 12.5831 76.3285 12.5037Z" fill="#41AD49"/><path id="Vector_37" d="M77.9888 9.57425C77.9888 9.57425 85.6681 11.5338 87.4316 21.6285L87.2769 21.5698C87.2769 21.5698 85.6613 17.6368 79.3466 13.6107C79.3466 13.6107 78.391 12.6861 77.9888 9.5708V9.57425Z" fill="#41AD49"/><path id="Vector_38" d="M85.6681 23.0019C85.6681 23.0019 85.6406 22.4637 85.455 21.6598C85.455 21.6598 85.2144 20.9077 85.8297 21.0699C85.8297 21.0699 83.1278 15.2153 76.0122 14.1147C76.0122 14.1147 76.9644 18.2996 85.6716 23.0019H85.6681Z" fill="#41AD49"/><path id="Vector_39" d="M72.1553 15.9121C72.1553 15.9121 76.0878 16.609 76.7822 17.2266C76.7822 17.2266 81.5706 22.2463 85.4756 23.9402C85.4756 23.9402 85.9053 23.9678 85.6612 24.6647C85.6612 24.6647 75.9778 23.6987 72.1519 15.9121H72.1553Z" fill="#41AD49"/><path id="Vector_40" d="M85.7471 26.331C85.7471 26.331 85.8261 25.9274 85.1868 25.955C85.1868 25.955 85.5202 26.3586 85.7471 26.331Z" fill="#41AD49"/><path id="Vector_41" d="M92.1133 33.5276C92.1133 33.5276 92.7286 31.8371 91.9002 30.2777C91.9002 30.2777 89.8927 24.5059 86.8711 23.0811C86.8711 23.0811 86.737 26.7863 87.3008 28.0766C87.3008 28.0766 87.9161 29.7154 89.0677 31.0298L90.4324 32.8548C90.4324 32.8548 90.5664 31.9958 90.807 31.8612C90.807 31.8612 90.9136 31.9164 91.5839 32.9342C91.5839 32.9342 91.9036 33.5517 92.1202 33.5241L92.1133 33.5276Z" fill="#41AD49"/><path id="Vector_42" d="M93.478 31.6748C93.478 31.6748 95.2449 22.1425 89.8411 17.416C89.8411 17.416 89.6108 18.6546 89.8411 20.1829C89.8411 20.1829 89.8961 20.8004 89.9477 21.4973C89.9477 21.4973 89.9477 23.5639 91.498 26.5447C91.498 26.5447 92.7836 28.9355 93.478 31.6748Z" fill="#41AD49"/><path id="Vector_43" d="M89.9993 35.9976C89.9993 35.9976 90.5596 35.0592 90.1849 34.4934C90.1849 34.4934 87.1358 30.4397 86.1458 28.318C86.1458 28.318 85.3174 27.7004 84.8086 27.3244C84.8086 27.3244 84.1315 26.6482 82.6946 26.4102C82.6946 26.4102 84.3549 32.3717 89.9993 35.9942V35.9976Z" fill="#41AD49"/><path id="Vector_44" d="M91.4191 34.7871C91.4191 34.7871 96.7163 38.1957 94.0935 46.0927C94.0935 46.0927 94.011 46.2031 93.7704 45.5027C93.7704 45.5027 93.5848 45.1267 93.2891 45.5027L92.9935 45.8788L92.6979 46.2548C92.6979 46.2548 90.0476 41.4145 91.4122 34.7906L91.4191 34.7871Z" fill="#41AD49"/><path id="Vector_45" d="M95.9668 33.1514C95.9668 33.1514 100.167 41.1519 94.8428 47.0858C94.8428 47.0858 96.259 45.2608 95.6437 39.4856C95.6437 39.4856 94.8668 34.8143 95.9634 33.1479L95.9668 33.1514Z" fill="#41AD49"/><path id="Vector_46" d="M91.285 47.5691C91.285 47.5691 89.6797 44.0259 89.6797 39.7549C89.6797 39.7549 89.1194 38.8958 88.4216 38.5198C88.4216 38.5198 87.3766 37.847 86.7372 37.1777C86.7372 37.1777 86.2972 42.6356 91.285 47.5691Z" fill="#41AD49"/><path id="Vector_47" d="M93.2924 47.6485C93.2924 47.6485 96.6096 53.3927 91.5531 59.8372C91.5531 59.8372 90.9481 59.1852 90.3053 59.5854C90.3053 59.5854 90.1231 59.7372 90.0165 59.4163C90.0165 59.4163 88.6793 52.7475 93.2924 47.645V47.6485Z" fill="#41AD49"/><path id="Vector_48" d="M98.7237 47.7554C98.7237 47.7554 99.7756 57.4153 92.1994 61.7589C92.1994 61.7589 91.8281 61.9107 91.8487 61.1793L91.9278 60.9102C91.9278 60.9102 94.1553 59.7924 95.379 53.2581C95.379 53.2581 95.8328 49.6322 98.7237 47.752V47.7554Z" fill="#41AD49"/><path id="Vector_49" d="M88.8238 59.4094C88.8238 59.4094 86.0085 55.0418 87.246 47.3276C87.246 47.3276 89.0129 48.3488 89.3601 52.2404C89.3601 52.2404 88.2085 56.5632 88.8238 59.4094Z" fill="#41AD49"/><path id="Vector_50" d="M34.3738 94.6059L60.5022 88.2441C60.5022 88.2441 61.3203 87.8336 61.4819 88.6961L35.1919 95.3856L34.3738 94.6059Z" fill="#41AD49"/><path id="Vector_51" d="M63.4033 84.839C63.4033 84.839 66.143 81.8858 70.0274 80.2436C70.0274 80.2436 72.0727 77.3284 72.0727 74.8271C72.0727 74.8271 65.4074 78.1909 63.4033 84.839Z" fill="#41AD49"/><path id="Vector_52" d="M65.325 89.3549C65.325 89.3549 71.3921 91.5491 78.4081 85.7014C78.4081 85.7014 75.0153 84.1006 70.3953 86.9744C70.3953 86.9744 67.8206 88.8616 65.325 89.3549Z" fill="#41AD49"/><path id="Vector_53" d="M73.3379 84.3079L74.6888 83.9802L73.582 83.856L73.3379 84.3079Z" fill="#41AD49"/><path id="Vector_54" d="M74.5237 82.2135V82.5826C74.5237 82.5826 76.4452 82.7068 77.9577 82.5412C77.9577 82.5412 85.4824 82.3377 89.2431 76.5486C89.2431 76.5486 89.2843 76.3037 88.7515 76.383C88.7515 76.383 84.0077 76.1795 78.8584 81.0198C78.8584 81.0198 77.2634 82.7448 74.5237 82.21V82.2135Z" fill="#41AD49"/><path id="Vector_55" d="M62.6677 87.8784C62.6677 87.8784 63.0527 84.9287 69.4946 81.9272C69.4946 81.9272 72.7259 80.285 73.8293 81.2303C73.8293 81.2303 72.6227 84.4146 67.9409 87.0987C67.9409 87.0987 64.4243 89.148 62.6677 87.8784Z" fill="#41AD49"/><path id="Vector_56" d="M78.9408 73.1438C78.9408 73.1438 74.8914 77.6184 74.0355 79.0536C74.0355 79.0536 73.1589 74.855 78.982 68.2207C78.982 68.2207 79.2673 69.9871 79.1058 71.1739C79.1058 71.1739 78.7792 72.6505 78.9408 73.1438Z" fill="#41AD49"/><path id="Vector_57" d="M83.8463 72.1607C83.8463 72.1607 79.0201 72.3228 74.9741 79.8334C74.9741 79.8334 76.0157 79.7265 74.9741 81.3928L75.4588 81.4515C75.4588 81.4515 82.2547 79.3815 83.8463 72.1572V72.1607Z" fill="#41AD49"/><path id="Vector_58" d="M85.2762 58.25C85.2762 58.25 81.4434 62.9006 82.3715 71.1771C82.3715 71.1771 82.5365 71.3427 82.6981 71.2599C82.6981 71.2599 83.1896 67.8961 84.7846 65.3915C84.7846 65.3915 87.5243 61.0824 85.2762 58.25Z" fill="#41AD49"/><path id="Vector_59" d="M90.3879 61.2861C90.3879 61.2861 85.1285 64.2911 84.3379 70.8046C84.3379 70.8046 85.5238 70.3941 85.4826 70.9702C85.4413 71.5464 85.4826 71.053 85.4826 71.053L85.4413 71.5464C85.4413 71.5464 90.797 68.224 90.3879 61.2861Z" fill="#41AD49"/><path id="Vector_60" d="M96.3174 62.6387C96.3174 62.6387 93.9043 63.9117 93.3337 64.3223C93.3337 64.3223 91.2471 65.5953 89.164 69.3282C89.164 69.3282 87.6928 72.0364 85.6062 73.2266C85.6062 73.2266 87.1599 73.9649 92.189 69.9423C92.189 69.9423 96.4412 66.5785 96.3174 62.6387Z" fill="#41AD49"/></g></svg>