<svg xmlns="http://www.w3.org/2000/svg" width="101" height="102" viewBox="0 0 101 102" fill="none"><g id="Layer_2" clip-path="url(#clip0_4778_24972)"><path id="Vector" d="M29.6244 39.2565C26.4448 42.8305 26.8268 43.084 25.9286 45.9331C25.0303 48.7822 21.2904 50.7536 21.2904 50.7536V35.5547L13.1097 41.6657C13.1097 41.6657 14.923 41.6301 14.923 43.924V62.3387C14.923 63.6397 15.9808 64.6955 17.284 64.6955H21.2904V53.5839C25.3409 49.7836 25.4522 55.528 25.9642 60.2333C26.4763 64.9386 29.6244 64.6955 29.6244 64.6955V62.3303C25.6368 58.352 27.2612 49.9156 27.2612 49.9156C25.5109 49.3479 23.3996 50.6866 23.3996 50.6866L27.3242 47.6992C28.7744 46.5951 29.6264 44.8772 29.6264 43.0567V39.2565H29.6244Z" fill="url(#paint0_linear_4778_24972)"/><path id="Vector_2" d="M78.2259 58.3018H78.589C79.2836 58.3018 79.8482 58.8654 79.8482 59.5588V61.327C79.8482 62.3263 79.036 63.137 78.0349 63.137V63.7466H83.8V54.5791L78.1902 57.5267L78.2259 58.3018Z" fill="url(#paint1_linear_4778_24972)"/><path id="Vector_3" d="M87.5692 74.4121H54.3846V75.2333H87.5692V74.4121Z" fill="url(#paint2_linear_4778_24972)"/><path id="Vector_4" d="M87.5692 75.2334H54.3846V76.0546H87.5692V75.2334Z" fill="url(#paint3_linear_4778_24972)"/><path id="Vector_5" d="M87.5693 83.7158H13.009V84.537H87.5693V83.7158Z" fill="url(#paint4_linear_4778_24972)"/><path id="Vector_6" d="M87.5693 100.679H13.009V101.5H87.5693V100.679Z" fill="url(#paint5_linear_4778_24972)"/><path id="Vector_7" d="M88.0645 65.9316H54.3846V66.7529H88.0645V65.9316Z" fill="url(#paint6_linear_4778_24972)"/><path id="Vector_8" d="M88.0645 66.7529H54.3846V67.5742H88.0645V66.7529Z" fill="url(#paint7_linear_4778_24972)"/><path id="Vector_9" d="M86.2176 68.7725H54.3846V73.2138H86.2176V68.7725Z" fill="url(#paint8_linear_4778_24972)"/><path id="Vector_10" d="M13.4917 75.2334H45.9291V74.4122H13.4917V75.2334Z" fill="url(#paint9_linear_4778_24972)"/><path id="Vector_11" d="M13.4917 76.0566H45.9291V75.2354H13.4917V76.0566Z" fill="url(#paint10_linear_4778_24972)"/><path id="Vector_12" d="M45.9291 66.7529H13.009V67.5742H45.9291V66.7529Z" fill="url(#paint11_linear_4778_24972)"/><path id="Vector_13" d="M45.9291 65.9316H13.009V66.7529H45.9291V65.9316Z" fill="url(#paint12_linear_4778_24972)"/><path id="Vector_14" d="M14.8159 73.2139H45.9312V68.7726H14.8159V73.2139Z" fill="url(#paint13_linear_4778_24972)"/><path id="Vector_15" d="M81.1557 56.5946C78.1084 58.6351 72.5532 62.0624 72.5532 62.0624L73.5773 59.3201C74.4987 58.8613 80.0854 54.994 83.5251 52.5953C84.6731 51.795 86.2471 52.6142 86.2471 54.0115V61.5555C86.2471 63.2901 84.8389 64.6958 83.1012 64.6958H54.4142V63.1371H81.0571C82.1316 63.1371 83.0026 62.2656 82.9984 61.193L82.9858 57.5646C82.9816 56.6281 81.9364 56.0729 81.1578 56.5946H81.1557Z" fill="url(#paint14_radial_4778_24972)"/><path id="Vector_16" d="M61.4321 62.0625H67.7239C67.7239 62.0625 71.2245 56.1485 68.5865 48.1206C65.6651 39.2338 56.9891 39.0159 54.4392 31.4175C54.4392 31.4175 54.7624 38.622 58.3533 42.2777C62.4478 46.4467 64.3849 52.2812 61.4321 62.0625Z" fill="url(#paint15_linear_4778_24972)"/><path id="Vector_17" d="M54.4392 31.4175C54.4392 31.4175 54.5043 32.8483 54.8925 34.7568C58.0364 39.1479 62.9746 41.1926 65.0397 48.1415C66.7417 53.865 65.0964 59.7141 64.2653 62.0646H67.7239C67.7239 62.0646 71.2245 56.1506 68.5865 48.1227C65.6651 39.2359 56.9891 39.018 54.4392 31.4196V31.4175Z" fill="url(#paint16_radial_4778_24972)"/><path id="Vector_18" d="M86.4485 35.6007L78.5112 41.5839C78.5112 41.5839 81.399 39.1182 82.5722 41.2362C83.972 43.7627 80.0412 47.1858 80.0412 47.1858L84.2092 44.0518C85.3907 43.1635 86.119 41.7997 86.1966 40.3249L86.4485 35.5986V35.6007Z" fill="url(#paint17_linear_4778_24972)"/><path id="Vector_19" d="M82.5722 41.2365C81.6803 39.6297 79.804 40.6604 78.952 41.2533L78.5112 41.5843H78.57C79.3927 41.6199 80.0412 42.2924 80.0412 43.1136V47.1862C80.0412 47.1862 83.972 43.763 82.5722 41.2365Z" fill="url(#paint18_linear_4778_24972)"/><path id="Vector_20" d="M82.8513 42.1202C83.1304 44.4917 80.0391 47.1858 80.0391 47.1858L84.2071 44.0518C85.3886 43.1635 86.1169 41.7997 86.1945 40.3249L86.4464 35.5986C84.2406 37.5888 83.2207 40.702 82.8513 42.1181V42.1202Z" fill="url(#paint19_linear_4778_24972)"/><path id="Vector_21" d="M75.4473 51.7849V53.2995L80.78 49.4008C81.6804 48.743 82.948 49.384 82.948 50.4986V51.2485L86.1443 48.9127V47.2304C86.1443 45.875 84.6018 45.0936 83.5062 45.8959L75.4494 51.789L75.4473 51.7849Z" fill="url(#paint20_linear_4778_24972)"/><path id="Vector_22" d="M80.7799 49.4006L78.1859 51.2965C78.1859 51.2965 79.9047 50.9593 79.7935 53.5528L82.9478 51.2463V50.4963C82.9478 49.3817 81.6802 48.7407 80.7799 49.3985V49.4006Z" fill="url(#paint21_linear_4778_24972)"/><path id="Vector_23" d="M68.4775 62.0624H72.5531C72.5531 62.0624 78.6582 53.3138 75.5878 45.5709C71.5667 35.4313 57.707 36.6505 54.4393 28.0298C54.4393 28.0298 54.2043 33.219 61.6567 38.228C69.2498 43.3293 72.7168 51.4891 68.4796 62.0624H68.4775Z" fill="url(#paint22_linear_4778_24972)"/><path id="Vector_24" d="M72.9665 46.7398C68.6747 36.309 58.2085 37.4026 54.5568 29.1338C54.9093 30.9229 56.2903 34.6226 61.6545 38.2259C69.2476 43.3271 72.7146 51.487 68.4774 62.0602H71.3862C71.3862 62.0602 75.7515 53.5086 72.9665 46.7377V46.7398Z" fill="url(#paint23_linear_4778_24972)"/><path id="Vector_25" d="M13.307 79.6099C13.307 79.0966 13.2965 79.017 13.0132 78.9918L12.8915 78.9814C12.8621 78.9625 12.8726 78.8745 12.902 78.8599C13.1433 78.8703 13.2986 78.8745 13.519 78.8745C13.71 78.8745 13.8779 78.8703 14.0878 78.8599C14.1171 78.8745 14.1276 78.9625 14.0982 78.9814L14.0059 78.9918C13.7205 79.0212 13.7121 79.0945 13.7121 79.6099V80.1734C13.7121 80.2656 13.7226 80.3599 13.7751 80.3599C13.8191 80.3599 13.8779 80.3305 13.9115 80.3054C13.9807 80.2467 14.1066 80.1189 14.1612 80.0707L14.6901 79.547C14.7824 79.459 15.0238 79.2097 15.072 79.1406C15.0972 79.1071 15.1056 79.0819 15.1056 79.0631C15.1056 79.0442 15.0867 79.0296 15.0217 79.0149L14.8895 78.9856C14.8559 78.952 14.8601 78.8871 14.8999 78.8641C15.072 78.8745 15.2672 78.8787 15.4393 78.8787C15.6114 78.8787 15.7772 78.8745 15.9241 78.8641C15.9577 78.8892 15.964 78.9562 15.9346 78.9856C15.8066 78.996 15.6156 79.0442 15.4792 79.1217C15.3428 79.1992 15.0678 79.4297 14.7929 79.6895L14.3522 80.1064C14.2829 80.1755 14.2389 80.2195 14.2389 80.2572C14.2389 80.2907 14.2682 80.3305 14.3312 80.408C14.7971 80.9422 15.1749 81.3822 15.5568 81.7844C15.6744 81.9017 15.7835 81.9667 15.9493 81.9855L16.0815 82.0002C16.1151 82.0253 16.1067 82.107 16.071 82.1217C15.943 82.1112 15.752 82.107 15.5212 82.107C15.3197 82.107 15.1476 82.1112 14.923 82.1217C14.8895 82.1112 14.8748 82.0295 14.9041 82.0002L15.0175 81.9813C15.0867 81.9709 15.135 81.9562 15.135 81.9332C15.135 81.9038 15.1014 81.864 15.0657 81.82C14.9734 81.7027 14.8454 81.5707 14.6586 81.3591L14.2661 80.9192C13.987 80.605 13.9073 80.5086 13.7897 80.5086C13.7163 80.5086 13.7058 80.5714 13.7058 80.7432V81.3738C13.7058 81.8871 13.7163 81.9562 13.9912 81.9855L14.1234 82.0002C14.1528 82.0191 14.1423 82.107 14.1129 82.1217C13.8716 82.1112 13.7058 82.107 13.5148 82.107C13.3133 82.107 13.1475 82.1112 12.9461 82.1217C12.9167 82.107 12.9062 82.0337 12.9356 82.0002L13.0342 81.9855C13.2945 81.9457 13.3049 81.8871 13.3049 81.3738V79.612L13.307 79.6099Z" fill="#231F20"/><path id="Vector_26" d="M16.0394 80.5252C16.0394 79.5469 16.7761 78.7969 17.7855 78.7969C18.9188 78.7969 19.4876 79.6139 19.4876 80.477C19.4876 81.4659 18.7321 82.1865 17.7855 82.1865C16.6963 82.1865 16.0394 81.4072 16.0394 80.5273V80.5252ZM18.9965 80.6279C18.9965 79.8192 18.6376 78.9477 17.7016 78.9477C17.1916 78.9477 16.5284 79.2955 16.5284 80.3681C16.5284 81.0929 16.881 82.0336 17.8485 82.0336C18.4361 82.0336 18.9965 81.5936 18.9965 80.6279Z" fill="#231F20"/><path id="Vector_27" d="M20.3397 79.6099C20.3397 79.0966 20.3292 79.017 20.0207 78.9918L19.899 78.9814C19.8696 78.9625 19.8801 78.8745 19.9095 78.8599C20.1844 78.8703 20.3502 78.8745 20.5475 78.8745C20.7447 78.8745 20.9063 78.8703 21.1498 78.8599C21.1792 78.8745 21.1897 78.9625 21.1603 78.9814L21.0428 78.9918C20.7531 79.017 20.7426 79.0945 20.7426 79.6099V81.3131C20.7426 81.621 20.7573 81.7488 20.8455 81.841C20.9 81.8955 20.9924 81.9541 21.3806 81.9541C21.7983 81.9541 21.9011 81.9353 21.9788 81.8913C22.0774 81.8326 22.2054 81.6566 22.302 81.4073C22.3314 81.3822 22.4237 81.4031 22.4237 81.4367C22.4237 81.4911 22.2873 81.9897 22.218 82.1217C21.9683 82.1112 21.5024 82.107 20.9966 82.107H20.5454C20.3397 82.107 20.1823 82.1112 19.9074 82.1217C19.878 82.107 19.8675 82.0295 19.8969 82.0002L20.0438 81.9855C20.3292 81.9562 20.3376 81.8871 20.3376 81.3738V79.612L20.3397 79.6099Z" fill="#231F20"/><path id="Vector_28" d="M23.0511 79.6099C23.0511 79.1008 23.0406 79.0275 22.751 78.9918L22.6733 78.9814C22.644 78.9625 22.6545 78.8745 22.6838 78.8599C22.8937 78.8703 23.0616 78.8745 23.2631 78.8745H24.1844C24.4992 78.8745 24.7867 78.8745 24.8476 78.8599C24.877 78.9437 24.9064 79.2956 24.9252 79.5114C24.9064 79.5407 24.8266 79.5512 24.8035 79.5219C24.7301 79.2914 24.686 79.1196 24.43 79.0568C24.3271 79.0317 24.1697 79.0275 23.9536 79.0275H23.601C23.4541 79.0275 23.4541 79.0379 23.4541 79.2244V80.2027C23.4541 80.3389 23.4688 80.3389 23.6157 80.3389H23.9011C24.1068 80.3389 24.26 80.3284 24.3187 80.3096C24.3775 80.2907 24.4111 80.2614 24.4362 80.1378L24.4761 79.9367C24.5013 79.9073 24.5832 79.9073 24.6041 79.9409C24.6041 80.0582 24.5853 80.2488 24.5853 80.4353C24.5853 80.6217 24.6041 80.7977 24.6041 80.9045C24.5853 80.9381 24.5013 80.9381 24.4761 80.9087L24.4321 80.7181C24.4132 80.6301 24.3775 80.5568 24.2809 80.5316C24.2117 80.5128 24.0942 80.5065 23.9032 80.5065H23.6178C23.4709 80.5065 23.4562 80.5107 23.4562 80.6385V81.3298C23.4562 81.5896 23.4709 81.7551 23.5485 81.8389C23.6073 81.8976 23.7101 81.952 24.1424 81.952C24.5202 81.952 24.6629 81.9332 24.7699 81.8787C24.8581 81.8305 24.9903 81.6587 25.1183 81.4031C25.1519 81.378 25.2212 81.3927 25.24 81.4367C25.2065 81.6084 25.0826 81.9855 25.0197 82.1175C24.579 82.107 24.1424 82.1029 23.7059 82.1029H23.2652C23.0553 82.1029 22.8874 82.107 22.5978 82.1175C22.5684 82.1029 22.5579 82.0253 22.5873 81.996L22.7489 81.9813C23.028 81.9562 23.0532 81.8829 23.0532 81.3696V79.6078L23.0511 79.6099Z" fill="#231F20"/><path id="Vector_29" d="M25.9894 79.6202C25.9894 79.0776 25.9411 79.0189 25.6515 78.9938L25.5298 78.9833C25.5004 78.9645 25.5109 78.8765 25.5403 78.8618C25.8257 78.8723 25.9915 78.8765 26.1972 78.8765C26.4029 78.8765 26.5603 78.8723 26.7554 78.8618C26.7848 78.8765 26.7953 78.9645 26.7659 78.9833L26.6925 78.9938C26.4029 79.0336 26.3924 79.1006 26.3924 79.6202V81.4365C26.3924 81.8241 26.3735 82.1614 26.279 82.3855C26.1174 82.7773 25.769 83.0915 25.3136 83.0915C25.2549 83.0915 25.1038 83.0873 25.1038 82.9889C25.1038 82.9051 25.1772 82.7647 25.28 82.7647C25.3388 82.7647 25.3976 82.7752 25.4605 82.7941C25.5298 82.8129 25.597 82.8276 25.6662 82.8276C25.769 82.8276 25.8278 82.7689 25.8614 82.6998C25.9747 82.4693 25.9894 81.7361 25.9894 81.47V79.6202Z" fill="#231F20"/><path id="Vector_30" d="M31.1731 80.1043C31.1731 79.8005 31.1626 79.237 31.0808 79.0903C31.0472 79.0317 30.9591 78.9981 30.8353 78.9877L30.7135 78.9772C30.6841 78.9437 30.6946 78.8787 30.724 78.8599C30.9108 78.8703 31.0913 78.8745 31.2823 78.8745C31.4879 78.8745 31.6202 78.8703 31.7965 78.8599C31.8363 78.885 31.83 78.9479 31.8069 78.9772L31.6894 78.9877C31.5677 78.9981 31.4733 79.0421 31.4439 79.105C31.3746 79.2663 31.3746 79.8298 31.3746 80.1043V80.6573C31.3746 81.0826 31.3054 81.533 31.0304 81.8284C30.8206 82.0589 30.4575 82.1867 30.0944 82.1867C29.7565 82.1867 29.4165 82.1238 29.1773 81.9164C28.917 81.7006 28.7953 81.3445 28.7953 80.76V79.6036C28.7953 79.0945 28.7848 79.0107 28.5015 78.9877L28.3798 78.9772C28.3504 78.9583 28.3609 78.8745 28.3903 78.8599C28.6358 78.8703 28.8016 78.8745 28.9989 78.8745C29.1962 78.8745 29.362 78.8703 29.6012 78.8599C29.6306 78.8745 29.6411 78.9583 29.6117 78.9772L29.4942 78.9877C29.2088 79.0128 29.2004 79.0945 29.2004 79.6036V80.6615C29.2004 81.4492 29.4459 81.9688 30.1952 81.9688C30.9066 81.9688 31.1752 81.4115 31.1752 80.6657V80.1022L31.1731 80.1043Z" fill="#231F20"/><path id="Vector_31" d="M35.1313 81.2754C35.1313 81.4221 35.1313 82.0045 35.146 82.1322C35.1355 82.1616 35.1061 82.1867 35.0536 82.1867C34.9949 82.1029 34.8522 81.9311 34.4261 81.4472L33.2886 80.1546C33.1564 80.0038 32.8227 79.6015 32.7199 79.4947H32.7094C32.6905 79.5534 32.6842 79.6665 32.6842 79.8131V80.8816C32.6842 81.112 32.6884 81.7489 32.7724 81.8955C32.8017 81.95 32.9004 81.9793 33.0221 81.9877L33.1732 82.0024C33.2026 82.0422 33.1984 82.1008 33.1627 82.1239C32.9424 82.1134 32.7703 82.1092 32.5898 82.1092C32.3841 82.1092 32.2519 82.1134 32.0798 82.1239C32.0462 82.0987 32.0399 82.0317 32.0693 82.0024L32.2015 81.9877C32.3148 81.973 32.3925 81.9437 32.4177 81.8892C32.4869 81.7133 32.4806 81.1162 32.4806 80.8816V79.4675C32.4806 79.3313 32.4764 79.2286 32.3736 79.1155C32.3044 79.0464 32.1868 79.0129 32.0693 78.9982L31.9854 78.9877C31.956 78.9584 31.956 78.8851 31.9958 78.8662C32.2015 78.8809 32.4618 78.8809 32.5499 78.8809C32.6276 78.8809 32.7115 78.8767 32.7745 78.8662C32.8731 79.1155 33.4502 79.7628 33.6139 79.943L34.0903 80.4772C34.4282 80.8543 34.6696 81.1288 34.9004 81.3634H34.9109C34.9298 81.3383 34.9298 81.2607 34.9298 81.1581V80.1106C34.9298 79.8802 34.9256 79.2433 34.8312 79.0967C34.8018 79.0527 34.7241 79.0233 34.5269 78.9982L34.4429 78.9877C34.4093 78.9584 34.4135 78.8809 34.4534 78.8662C34.6801 78.8767 34.8459 78.8809 35.0327 78.8809C35.2425 78.8809 35.3705 78.8767 35.5384 78.8662C35.5783 78.8914 35.5783 78.9584 35.5489 78.9877L35.4797 78.9982C35.3223 79.0233 35.2236 79.061 35.2047 79.1008C35.1208 79.2768 35.1313 79.8844 35.1313 80.1085V81.2796V81.2754Z" fill="#231F20"/><path id="Vector_32" d="M36.3318 79.6202C36.3318 79.1006 36.3213 79.0189 36.0317 78.9938L35.9099 78.9833C35.8806 78.9645 35.891 78.8765 35.9204 78.8618C36.166 78.8723 36.3318 78.8765 36.5374 78.8765C36.7431 78.8765 36.9005 78.8723 37.1461 78.8618C37.1754 78.8765 37.1859 78.9645 37.1566 78.9833L37.0348 78.9938C36.7452 79.0189 36.7347 79.1006 36.7347 79.6202V81.3632C36.7347 81.8827 36.7452 81.9498 37.0348 81.9854L37.1566 82.0001C37.1859 82.0189 37.1754 82.1069 37.1461 82.1216C36.9005 82.1111 36.7347 82.1069 36.5374 82.1069C36.3318 82.1069 36.1639 82.1111 35.9204 82.1216C35.891 82.1069 35.8806 82.0294 35.9099 82.0001L36.0317 81.9854C36.3213 81.9519 36.3318 81.8827 36.3318 81.3632V79.6202Z" fill="#231F20"/><path id="Vector_33" d="M37.8511 79.3941C37.7378 79.1196 37.6643 79.017 37.4545 78.9918L37.3663 78.9814C37.3327 78.952 37.3369 78.8829 37.3768 78.8599C37.5195 78.8703 37.6769 78.8745 37.8868 78.8745C38.0967 78.8745 38.2751 78.8703 38.4807 78.8599C38.5143 78.8787 38.5248 78.952 38.4912 78.9814L38.4178 78.9918C38.231 79.017 38.1932 79.0463 38.1869 79.084C38.1974 79.1322 38.2793 79.3983 38.4325 79.7691C38.6591 80.3368 38.8837 80.9004 39.1292 81.4576C39.2803 81.135 39.4881 80.6301 39.5993 80.3703C39.742 80.0372 39.9729 79.4842 40.0547 79.2747C40.0946 79.172 40.0988 79.1175 40.0988 79.084C40.0988 79.0505 40.0505 79.0107 39.8785 78.9918L39.7903 78.9814C39.7567 78.952 39.7651 78.8787 39.8008 78.8599C39.9372 78.8703 40.124 78.8745 40.3108 78.8745C40.4724 78.8745 40.6256 78.8703 40.7872 78.8599C40.8208 78.8787 40.8208 78.9583 40.7977 78.9814L40.6508 78.9918C40.5333 79.0023 40.4598 79.061 40.3947 79.1636C40.2583 79.3941 40.0652 79.79 39.8449 80.2907L39.5804 80.8941C39.3853 81.3445 39.1544 81.9122 39.0705 82.172C39.0558 82.1825 39.0369 82.1867 39.0159 82.1867C38.9907 82.1867 38.9676 82.1825 38.9424 82.172C38.8879 81.9667 38.7997 81.7258 38.7158 81.5205L37.8532 79.3962L37.8511 79.3941Z" fill="#231F20"/><path id="Vector_34" d="M41.3056 79.6099C41.3056 79.1008 41.2951 79.0275 41.0055 78.9918L40.9279 78.9814C40.8985 78.9625 40.909 78.8745 40.9384 78.8599C41.1482 78.8703 41.3161 78.8745 41.5176 78.8745H42.4389C42.7537 78.8745 43.0412 78.8745 43.1021 78.8599C43.1315 78.9437 43.1609 79.2956 43.1798 79.5114C43.1609 79.5407 43.0811 79.5512 43.058 79.5219C42.9846 79.2914 42.9405 79.1196 42.6845 79.0568C42.5816 79.0317 42.4242 79.0275 42.2081 79.0275H41.8555C41.7086 79.0275 41.7086 79.0379 41.7086 79.2244V80.2027C41.7086 80.3389 41.7233 80.3389 41.8702 80.3389H42.1556C42.3613 80.3389 42.5145 80.3284 42.5732 80.3096C42.632 80.2907 42.6656 80.2614 42.6908 80.1378L42.7306 79.9367C42.7558 79.9073 42.8377 79.9073 42.8587 79.9409C42.8587 80.0582 42.8398 80.2488 42.8398 80.4353C42.8398 80.6217 42.8587 80.7977 42.8587 80.9045C42.8398 80.9381 42.7558 80.9381 42.7306 80.9087L42.6866 80.7181C42.6677 80.6301 42.632 80.5568 42.5355 80.5316C42.4662 80.5128 42.3487 80.5065 42.1577 80.5065H41.8723C41.7254 80.5065 41.7107 80.5107 41.7107 80.6385V81.3298C41.7107 81.5896 41.7254 81.7551 41.803 81.8389C41.8618 81.8976 41.9646 81.952 42.3969 81.952C42.7747 81.952 42.9174 81.9332 43.0245 81.8787C43.1126 81.8305 43.2448 81.6587 43.3728 81.4031C43.4064 81.378 43.4757 81.3927 43.4946 81.4367C43.461 81.6084 43.3372 81.9855 43.2742 82.1175C42.8335 82.107 42.3969 82.1029 41.9604 82.1029H41.5197C41.3098 82.1029 41.1419 82.107 40.8523 82.1175C40.8229 82.1029 40.8124 82.0253 40.8418 81.996L41.0034 81.9813C41.2825 81.9562 41.3077 81.8829 41.3077 81.3696V79.6078L41.3056 79.6099Z" fill="#231F20"/><path id="Vector_35" d="M44.1682 79.6163C44.1682 79.1513 44.1535 79.0675 43.952 79.0444L43.7946 79.0256C43.761 79.0004 43.7611 78.9229 43.7988 78.9041C44.0738 78.8789 44.4116 78.8643 44.8922 78.8643C45.1966 78.8643 45.4862 78.8894 45.7107 79.0109C45.9458 79.1324 46.1179 79.3545 46.1179 79.696C46.1179 80.161 45.7506 80.4166 45.5051 80.513C45.4799 80.5423 45.5051 80.5905 45.5302 80.6303C45.9227 81.2609 46.1829 81.6526 46.5166 81.9334C46.6006 82.0067 46.7223 82.0612 46.8545 82.0695C46.8797 82.08 46.8839 82.1177 46.8587 82.1387C46.8146 82.1533 46.737 82.1638 46.6426 82.1638C46.2249 82.1638 45.9752 82.0423 45.6268 81.5479C45.4988 81.3677 45.2973 81.0283 45.1462 80.8084C45.0727 80.7015 44.9951 80.6513 44.7978 80.6513C44.5774 80.6513 44.5669 80.6554 44.5669 80.7581V81.374C44.5669 81.8873 44.5774 81.9459 44.8608 81.9857L44.9636 82.0004C44.993 82.0255 44.9825 82.1072 44.9531 82.1219C44.7327 82.1114 44.5648 82.1073 44.3697 82.1073C44.164 82.1073 43.9877 82.1114 43.7569 82.1219C43.7275 82.1072 43.717 82.0339 43.7464 82.0004L43.8681 81.9857C44.1535 81.9522 44.1619 81.8873 44.1619 81.374V79.6163H44.1682ZM44.5711 80.3161C44.5711 80.4041 44.5711 80.4585 44.5858 80.4774C44.6005 80.492 44.674 80.5025 44.9237 80.5025C45.1 80.5025 45.2868 80.4837 45.4295 80.3747C45.5617 80.2721 45.6751 80.1003 45.6751 79.7672C45.6751 79.3796 45.4337 79.013 44.8901 79.013C44.5858 79.013 44.5711 79.0319 44.5711 79.1701V80.3161Z" fill="#231F20"/><path id="Vector_36" d="M47.8033 82.1846C47.3919 82.1846 47.1317 82.0568 47.0372 82.0023C46.9785 81.8955 46.9155 81.5477 46.905 81.3172C46.9302 81.2837 47.0037 81.2733 47.0226 81.3026C47.096 81.5519 47.2975 82.0316 47.8662 82.0316C48.2776 82.0316 48.479 81.7614 48.479 81.4681C48.479 81.2523 48.435 81.0135 48.0761 80.783L47.6102 80.4793C47.3646 80.318 47.0813 80.0393 47.0813 79.6371C47.0813 79.172 47.4444 78.7949 48.0824 78.7949C48.2335 78.7949 48.4119 78.8242 48.5378 78.8578C48.6008 78.8766 48.67 78.8871 48.7099 78.8871C48.754 79.0044 48.798 79.2789 48.798 79.4842C48.7792 79.5135 48.6994 79.5282 48.6763 79.4988C48.6134 79.2642 48.4811 78.9458 48.0089 78.9458C47.5367 78.9458 47.4255 79.2642 47.4255 79.4884C47.4255 79.7733 47.6606 79.9786 47.8431 80.0917L48.2356 80.3368C48.5441 80.5274 48.8484 80.8124 48.8484 81.2774C48.8484 81.8158 48.4413 82.1825 47.8033 82.1825V82.1846Z" fill="#231F20"/><path id="Vector_37" d="M49.7297 79.6202C49.7297 79.1006 49.7192 79.0189 49.4296 78.9938L49.3079 78.9833C49.2785 78.9645 49.289 78.8765 49.3184 78.8618C49.5639 78.8723 49.7297 78.8765 49.9354 78.8765C50.1411 78.8765 50.2985 78.8723 50.544 78.8618C50.5734 78.8765 50.5839 78.9645 50.5545 78.9833L50.4328 78.9938C50.1432 79.0189 50.1327 79.1006 50.1327 79.6202V81.3632C50.1327 81.8827 50.1432 81.9498 50.4328 81.9854L50.5545 82.0001C50.5839 82.0189 50.5734 82.1069 50.544 82.1216C50.2985 82.1111 50.1327 82.1069 49.9354 82.1069C49.7297 82.1069 49.5618 82.1111 49.3184 82.1216C49.289 82.1069 49.2785 82.0294 49.3079 82.0001L49.4296 81.9854C49.7192 81.9519 49.7297 81.8827 49.7297 81.3632V79.6202Z" fill="#231F20"/><path id="Vector_38" d="M52.565 81.3735C52.565 81.8867 52.5755 81.9601 52.8588 81.9852L53.0162 81.9999C53.0456 82.0187 53.0351 82.1067 53.0057 82.1214C52.7266 82.1109 52.5587 82.1067 52.3635 82.1067C52.1684 82.1067 51.9963 82.1109 51.6815 82.1214C51.6521 82.1067 51.6416 82.0229 51.6815 81.9999L51.8578 81.9852C52.1369 81.9601 52.1621 81.8867 52.1621 81.3735V79.1842C52.1621 79.0334 52.1621 79.0271 52.0152 79.0271H51.7444C51.5325 79.0271 51.2638 79.0376 51.14 79.1486C51.0225 79.2555 50.9742 79.3644 50.9196 79.4859C50.8798 79.5152 50.8126 79.4901 50.7916 79.4524C50.8693 79.2324 50.9427 78.9182 50.9784 78.7234C50.9931 78.7129 51.0561 78.7087 51.0708 78.7234C51.1001 78.8805 51.2617 78.8742 51.4884 78.8742H53.4738C53.7382 78.8742 53.7823 78.8637 53.8557 78.738C53.8809 78.7275 53.9334 78.7338 53.9439 78.7527C53.8893 78.9538 53.8557 79.3497 53.8704 79.4964C53.8515 79.5362 53.7676 79.5362 53.7424 79.5069C53.7277 79.3854 53.6941 79.2031 53.6207 79.1486C53.5073 79.0648 53.3206 79.0271 53.0519 79.0271H52.7035C52.5566 79.0271 52.5608 79.0313 52.5608 79.1926V81.3714L52.565 81.3735Z" fill="#231F20"/><path id="Vector_39" d="M54.6239 79.6202C54.6239 79.1006 54.6134 79.0189 54.3238 78.9938L54.202 78.9833C54.1727 78.9645 54.1832 78.8765 54.2125 78.8618C54.4581 78.8723 54.6239 78.8765 54.8296 78.8765C55.0352 78.8765 55.1926 78.8723 55.4382 78.8618C55.4676 78.8765 55.4781 78.9645 55.4487 78.9833L55.3269 78.9938C55.0373 79.0189 55.0268 79.1006 55.0268 79.6202V81.3632C55.0268 81.8827 55.0373 81.9498 55.3269 81.9854L55.4487 82.0001C55.4781 82.0189 55.4676 82.1069 55.4382 82.1216C55.1926 82.1111 55.0268 82.1069 54.8296 82.1069C54.6239 82.1069 54.456 82.1111 54.2125 82.1216C54.1832 82.1069 54.1727 82.0294 54.202 82.0001L54.3238 81.9854C54.6134 81.9519 54.6239 81.8827 54.6239 81.3632V79.6202Z" fill="#231F20"/><path id="Vector_40" d="M57.5076 79.6202C57.5076 79.1006 57.4971 79.0189 57.2074 78.9938L57.0857 78.9833C57.0563 78.9645 57.0668 78.8765 57.0962 78.8618C57.3418 78.8723 57.5076 78.8765 57.7132 78.8765C57.9189 78.8765 58.0763 78.8723 58.3218 78.8618C58.3512 78.8765 58.3617 78.9645 58.3323 78.9833L58.2106 78.9938C57.921 79.0189 57.9105 79.1006 57.9105 79.6202V81.3632C57.9105 81.8827 57.921 81.9498 58.2106 81.9854L58.3323 82.0001C58.3617 82.0189 58.3512 82.1069 58.3218 82.1216C58.0763 82.1111 57.9105 82.1069 57.7132 82.1069C57.5076 82.1069 57.3397 82.1111 57.0962 82.1216C57.0668 82.1069 57.0563 82.0294 57.0857 82.0001L57.2074 81.9854C57.4971 81.9519 57.5076 81.8827 57.5076 81.3632V79.6202Z" fill="#231F20"/><path id="Vector_41" d="M59.6357 82.1846C59.2243 82.1846 58.9641 82.0568 58.8696 82.0023C58.8109 81.8955 58.7479 81.5477 58.7374 81.3172C58.7626 81.2837 58.8361 81.2733 58.855 81.3026C58.9284 81.5519 59.1299 82.0316 59.6986 82.0316C60.11 82.0316 60.3114 81.7614 60.3114 81.4681C60.3114 81.2523 60.2674 81.0135 59.9085 80.783L59.4426 80.4793C59.197 80.318 58.9137 80.0393 58.9137 79.6371C58.9137 79.172 59.2768 78.7949 59.9148 78.7949C60.0659 78.7949 60.2443 78.8242 60.3702 78.8578C60.4332 78.8766 60.5024 78.8871 60.5423 78.8871C60.5864 79.0044 60.6304 79.2789 60.6304 79.4842C60.6116 79.5135 60.5318 79.5282 60.5087 79.4988C60.4458 79.2642 60.3114 78.9458 59.8413 78.9458C59.3712 78.9458 59.2579 79.2642 59.2579 79.4884C59.2579 79.7733 59.493 79.9786 59.6755 80.0917L60.068 80.3368C60.3765 80.5274 60.6808 80.8124 60.6808 81.2774C60.6808 81.8158 60.2737 82.1825 59.6357 82.1825V82.1846Z" fill="#231F20"/><path id="Vector_42" d="M61.5643 79.6099C61.5643 79.0966 61.5538 79.017 61.2453 78.9918L61.1236 78.9814C61.0942 78.9625 61.1047 78.8745 61.1341 78.8599C61.409 78.8703 61.5748 78.8745 61.7721 78.8745C61.9693 78.8745 62.1309 78.8703 62.3765 78.8599C62.4059 78.8745 62.4163 78.9625 62.387 78.9814L62.2694 78.9918C61.9798 79.017 61.9693 79.0945 61.9693 79.6099V81.3131C61.9693 81.621 61.984 81.7488 62.0722 81.841C62.1267 81.8955 62.2191 81.9541 62.6073 81.9541C63.025 81.9541 63.1278 81.9353 63.2055 81.8913C63.3041 81.8326 63.4321 81.6566 63.5287 81.4073C63.558 81.3822 63.6504 81.4031 63.6504 81.4367C63.6504 81.4911 63.514 81.9897 63.4447 82.1217C63.195 82.1112 62.7291 82.107 62.2233 82.107H61.7721C61.5664 82.107 61.409 82.1112 61.1341 82.1217C61.1047 82.107 61.0942 82.0295 61.1236 82.0002L61.2705 81.9855C61.5559 81.9562 61.5643 81.8871 61.5643 81.3738V79.612V79.6099Z" fill="#231F20"/><path id="Vector_43" d="M65.7029 80.9713C65.6693 80.8645 65.6483 80.8498 65.5014 80.8498H64.7606C64.6389 80.8498 64.6095 80.8645 64.5738 80.9671L64.4017 81.4804C64.3283 81.7003 64.2947 81.8323 64.2947 81.8868C64.2947 81.9455 64.3199 81.9748 64.4374 81.9853L64.599 81.9999C64.6326 82.0251 64.6326 82.1026 64.5885 82.1214C64.4605 82.111 64.3094 82.111 64.0785 82.1068C63.9169 82.1068 63.7406 82.1172 63.6084 82.1214C63.579 82.1026 63.5685 82.023 63.5979 81.9999L63.7595 81.9853C63.877 81.9748 63.9862 81.9224 64.0533 81.7464C64.1415 81.5223 64.28 81.2038 64.4857 80.655L64.9852 79.333C65.0544 79.1571 65.0838 79.0628 65.0691 78.9853C65.1866 78.9518 65.2706 78.8638 65.3251 78.7988C65.3545 78.7988 65.3881 78.8093 65.3986 78.8428C65.4616 79.0586 65.5413 79.2828 65.6148 79.4985L66.2863 81.4678C66.4291 81.8889 66.492 81.9622 66.704 81.9874L66.8362 82.002C66.8698 82.0272 66.8614 82.1047 66.8362 82.1235C66.6347 82.113 66.4626 82.1089 66.2423 82.1089C66.0072 82.1089 65.8204 82.1193 65.6777 82.1235C65.6379 82.1047 65.6337 82.0251 65.6672 82.002L65.8099 81.9874C65.9128 81.9769 65.982 81.9475 65.982 81.8994C65.982 81.8449 65.9569 81.7569 65.9191 81.6396L65.7029 80.9734V80.9713ZM64.7312 80.5355C64.6913 80.6487 64.6976 80.6529 64.8341 80.6529H65.4364C65.5791 80.6529 65.5875 80.634 65.5434 80.502L65.279 79.7039C65.2391 79.5865 65.195 79.4546 65.1656 79.3959H65.1552C65.1405 79.421 65.0922 79.5384 65.0376 79.685L64.7291 80.5376L64.7312 80.5355Z" fill="#231F20"/><path id="Vector_44" d="M68.6705 80.7998C68.7838 81.0302 68.8908 81.2544 69.0084 81.4702H69.0188C69.1511 81.2397 69.2749 80.9862 69.3966 80.7369L69.8583 79.8026C70.0787 79.3564 70.2214 79.0882 70.2319 78.862C70.3977 78.8766 70.5026 78.8766 70.5992 78.8766C70.7209 78.8766 70.8846 78.8724 71.0357 78.862C71.0651 78.8808 71.0651 78.9646 71.0399 78.9835L70.9371 78.9939C70.6285 79.0233 70.5887 79.1154 70.5929 79.459C70.6034 79.9786 70.6076 80.8836 70.6474 81.5896C70.6621 81.8347 70.6579 81.9667 70.8888 81.9855L71.0462 82.0002C71.0756 82.0295 71.0714 82.1029 71.0357 82.1217C70.8342 82.1112 70.6327 82.107 70.4565 82.107C70.2802 82.107 70.064 82.1112 69.8625 82.1217C69.8289 82.0966 69.8226 82.0295 69.852 82.0002L69.9947 81.9855C70.234 81.9604 70.234 81.8829 70.234 81.5686L70.2193 79.5261H70.2088C70.1752 79.5805 69.9884 79.9723 69.8898 80.1629L69.4533 81.0198C69.2329 81.4513 69.0125 81.9101 68.9244 82.1364C68.9139 82.151 68.895 82.1552 68.8761 82.1552C68.8656 82.1552 68.8426 82.151 68.8321 82.1364C68.7481 81.8766 68.5131 81.3969 68.3997 81.158L67.959 80.2132C67.8562 79.989 67.7533 79.7335 67.6442 79.5072H67.6337C67.6148 79.811 67.6001 80.0938 67.5854 80.3787C67.5708 80.6783 67.5519 81.114 67.5519 81.5288C67.5519 81.8913 67.5812 81.9688 67.7722 81.9834L67.959 81.9981C67.9926 82.0274 67.9884 82.105 67.9548 82.1196C67.789 82.1091 67.5959 82.105 67.4112 82.105C67.2538 82.105 67.0776 82.1091 66.9118 82.1196C66.8824 82.0945 66.8719 82.0212 66.9013 81.9981L67.0083 81.9834C67.214 81.9541 67.2832 81.9248 67.3126 81.5812C67.342 81.2586 67.3672 80.9883 67.3966 80.5044C67.4217 80.098 67.4406 79.6811 67.4511 79.4129C67.4616 79.105 67.4217 79.0317 67.1216 78.9918L67.044 78.9814C67.0188 78.952 67.0251 78.8787 67.0629 78.8599C67.2098 78.8703 67.3273 78.8745 67.4511 78.8745C67.5645 78.8745 67.6967 78.8745 67.8583 78.8599C67.8394 79.0505 67.9611 79.3543 68.1143 79.6685L68.6726 80.7998H68.6705Z" fill="#231F20"/><path id="Vector_45" d="M73.4911 81.374C73.4911 81.8873 73.5016 81.9522 73.8143 81.9857L73.9466 82.0004C73.9759 82.0255 73.9654 82.1072 73.9361 82.1219C73.6569 82.1114 73.4953 82.1073 73.2981 82.1073C73.0924 82.1073 72.9161 82.1114 72.6999 82.1219C72.6706 82.1072 72.6601 82.0297 72.6894 82.0004L72.7923 81.9857C73.0777 81.9459 73.0861 81.8873 73.0861 81.374V79.5682C73.0861 79.1513 73.0756 79.0696 72.8552 79.0444L72.6789 79.0256C72.6454 78.9962 72.6496 78.9229 72.6894 78.9041C72.9497 78.8705 73.254 78.8643 73.6611 78.8643C74.0683 78.8643 74.3726 78.9187 74.6035 79.0591C74.828 79.2015 74.9959 79.455 74.9959 79.7944C74.9959 80.2448 74.7168 80.469 74.5048 80.5737C74.2886 80.6764 74.0284 80.7204 73.829 80.7204C73.7955 80.7057 73.7954 80.6324 73.8248 80.6219C74.3537 80.5235 74.5468 80.226 74.5468 79.7986C74.5468 79.3231 74.2677 79.0151 73.7577 79.0151C73.4974 79.0151 73.4932 79.0339 73.4932 79.1911V81.374H73.4911Z" fill="#231F20"/><path id="Vector_46" d="M75.7222 79.6099C75.7222 79.1008 75.7117 79.0275 75.422 78.9918L75.3444 78.9814C75.315 78.9625 75.3255 78.8745 75.3549 78.8599C75.5648 78.8703 75.7327 78.8745 75.9341 78.8745H76.8555C77.1703 78.8745 77.4599 78.8745 77.5165 78.8599C77.5459 78.9437 77.5753 79.2956 77.5942 79.5114C77.5753 79.5407 77.4956 79.5512 77.4725 79.5219C77.399 79.2914 77.3549 79.1196 77.0989 79.0568C76.9961 79.0317 76.8387 79.0275 76.6225 79.0275H76.2699C76.123 79.0275 76.123 79.0379 76.123 79.2244V80.2027C76.123 80.3389 76.1377 80.3389 76.2846 80.3389H76.57C76.7757 80.3389 76.9289 80.3284 76.9877 80.3096C77.0464 80.2907 77.08 80.2614 77.1052 80.1378L77.1451 79.9367C77.1703 79.9073 77.2521 79.9073 77.2731 79.9409C77.2731 80.0582 77.2542 80.2488 77.2542 80.4353C77.2542 80.6217 77.2731 80.7977 77.2731 80.9045C77.2542 80.9381 77.1703 80.9381 77.1451 80.9087L77.101 80.7181C77.0821 80.6301 77.0464 80.5568 76.9499 80.5316C76.8806 80.5128 76.7631 80.5065 76.5721 80.5065H76.2867C76.1398 80.5065 76.1251 80.5107 76.1251 80.6385V81.3298C76.1251 81.5896 76.1398 81.7551 76.2174 81.8389C76.2762 81.8976 76.379 81.952 76.8114 81.952C77.1891 81.952 77.3319 81.9332 77.4389 81.8787C77.527 81.8305 77.6593 81.6587 77.7873 81.4031C77.8208 81.378 77.8901 81.3927 77.909 81.4367C77.8754 81.6084 77.7516 81.9855 77.6886 82.1175C77.2479 82.107 76.8114 82.1029 76.3748 82.1029H75.9341C75.7243 82.1029 75.5564 82.107 75.2667 82.1175C75.2374 82.1029 75.2269 82.0253 75.2562 81.996L75.4178 81.9813C75.697 81.9562 75.7222 81.8829 75.7222 81.3696V79.6078V79.6099Z" fill="#231F20"/><path id="Vector_47" d="M78.5847 79.6163C78.5847 79.1513 78.57 79.0675 78.3685 79.0444L78.2111 79.0256C78.1776 79.0004 78.1776 78.9229 78.2153 78.9041C78.4903 78.8789 78.8281 78.8643 79.3087 78.8643C79.6131 78.8643 79.9027 78.8894 80.1272 79.0109C80.3623 79.1324 80.5344 79.3545 80.5344 79.696C80.5344 80.161 80.1671 80.4166 79.9216 80.513C79.8964 80.5423 79.9216 80.5905 79.9468 80.6303C80.3392 81.2609 80.5994 81.6526 80.9331 81.9334C81.0171 82.0067 81.1388 82.0612 81.271 82.0695C81.2962 82.08 81.3004 82.1177 81.2752 82.1387C81.2311 82.1533 81.1535 82.1638 81.0591 82.1638C80.6414 82.1638 80.3917 82.0423 80.0433 81.5479C79.9153 81.3677 79.7138 81.0283 79.5627 80.8084C79.4892 80.7015 79.4116 80.6513 79.2143 80.6513C78.9939 80.6513 78.9835 80.6554 78.9835 80.7581V81.374C78.9835 81.8873 78.9939 81.9459 79.2773 81.9857L79.3801 82.0004C79.4095 82.0255 79.399 82.1072 79.3696 82.1219C79.1492 82.1114 78.9814 82.1073 78.7862 82.1073C78.5805 82.1073 78.4042 82.1114 78.1734 82.1219C78.144 82.1072 78.1335 82.0339 78.1629 82.0004L78.2846 81.9857C78.57 81.9522 78.5784 81.8873 78.5784 81.374V79.6163H78.5847ZM78.9876 80.3161C78.9876 80.4041 78.9877 80.4585 79.0023 80.4774C79.017 80.492 79.0905 80.5025 79.3402 80.5025C79.5165 80.5025 79.7033 80.4837 79.846 80.3747C79.9782 80.2721 80.0916 80.1003 80.0916 79.7672C80.0916 79.3796 79.8523 79.013 79.3066 79.013C79.0023 79.013 78.9876 79.0319 78.9876 79.1701V80.3161Z" fill="#231F20"/><path id="Vector_48" d="M81.7496 79.6099C81.7496 79.0966 81.7391 79.017 81.4306 78.9918L81.3089 78.9814C81.2795 78.9625 81.29 78.8745 81.3194 78.8599C81.5943 78.8703 81.7601 78.8745 81.9574 78.8745C82.1546 78.8745 82.3162 78.8703 82.5618 78.8599C82.5912 78.8745 82.6017 78.9625 82.5723 78.9814L82.4547 78.9918C82.1651 79.017 82.1546 79.0945 82.1546 79.6099V81.3131C82.1546 81.621 82.1693 81.7488 82.2575 81.841C82.312 81.8955 82.4044 81.9541 82.7926 81.9541C83.2103 81.9541 83.3131 81.9353 83.3908 81.8913C83.4894 81.8326 83.6174 81.6566 83.714 81.4073C83.7433 81.3822 83.8357 81.4031 83.8357 81.4367C83.8357 81.4911 83.6993 81.9897 83.63 82.1217C83.3803 82.1112 82.9144 82.107 82.4086 82.107H81.9574C81.7517 82.107 81.5943 82.1112 81.3194 82.1217C81.29 82.107 81.2795 82.0295 81.3089 82.0002L81.4558 81.9855C81.7412 81.9562 81.7496 81.8871 81.7496 81.3738V79.612V79.6099Z" fill="#231F20"/><path id="Vector_49" d="M84.461 79.6202C84.461 79.1006 84.4505 79.0189 84.1609 78.9938L84.0392 78.9833C84.0098 78.9645 84.0203 78.8765 84.0497 78.8618C84.2952 78.8723 84.461 78.8765 84.6667 78.8765C84.8724 78.8765 85.0298 78.8723 85.2753 78.8618C85.3047 78.8765 85.3152 78.9645 85.2858 78.9833L85.1641 78.9938C84.8745 79.0189 84.864 79.1006 84.864 79.6202V81.3632C84.864 81.8827 84.8745 81.9498 85.1641 81.9854L85.2858 82.0001C85.3152 82.0189 85.3047 82.1069 85.2753 82.1216C85.0298 82.1111 84.864 82.1069 84.6667 82.1069C84.461 82.1069 84.2931 82.1111 84.0497 82.1216C84.0203 82.1069 84.0098 82.0294 84.0392 82.0001L84.1609 81.9854C84.4505 81.9519 84.461 81.8827 84.461 81.3632V79.6202Z" fill="#231F20"/><path id="Vector_50" d="M86.5892 82.1846C86.1778 82.1846 85.9176 82.0568 85.8231 82.0023C85.7644 81.8955 85.7014 81.5477 85.6909 81.3172C85.7161 81.2837 85.7896 81.2733 85.8084 81.3026C85.8819 81.5519 86.0834 82.0316 86.6521 82.0316C87.0635 82.0316 87.2649 81.7614 87.2649 81.4681C87.2649 81.2523 87.2209 81.0135 86.862 80.783L86.3961 80.4793C86.1505 80.318 85.8672 80.0393 85.8672 79.6371C85.8672 79.172 86.2303 78.7949 86.8683 78.7949C87.0194 78.7949 87.1978 78.8242 87.3237 78.8578C87.3867 78.8766 87.4559 78.8871 87.4958 78.8871C87.5399 79.0044 87.5839 79.2789 87.5839 79.4842C87.565 79.5135 87.4853 79.5282 87.4622 79.4988C87.3993 79.2642 87.2649 78.9458 86.7948 78.9458C86.3247 78.9458 86.2114 79.2642 86.2114 79.4884C86.2114 79.7733 86.4464 79.9786 86.629 80.0917L87.0215 80.3368C87.33 80.5274 87.6343 80.8124 87.6343 81.2774C87.6343 81.8158 87.2272 82.1825 86.5892 82.1825V82.1846Z" fill="#231F20"/><path id="Vector_51" d="M53.3752 10.832L45.2092 16.9221C45.2092 16.9221 46.9973 17.0792 46.9973 19.9137V72.1389C46.9973 74.3721 48.8106 76.1842 51.0499 76.1842H53.3752V10.832Z" fill="url(#paint24_radial_4778_24972)"/><path id="Vector_52" d="M50.4832 19.7712V72.2331C50.4832 74.4203 51.778 76.1842 53.3752 76.1842V10.832C53.3752 10.832 50.4832 13.809 50.4832 19.7733V19.7712Z" fill="url(#paint25_linear_4778_24972)"/><path id="Vector_53" d="M18.3355 61.4528V42.527C17.2589 38.6387 13.1097 41.6659 13.1097 41.6659C13.1097 41.6659 14.923 41.6303 14.923 43.9243V62.339C14.923 63.64 15.9808 64.6958 17.284 64.6958H21.2904C21.2904 64.6958 18.3334 63.7468 18.3334 61.4528H18.3355Z" fill="url(#paint26_radial_4778_24972)"/><path id="Vector_54" d="M18.3355 42.5268C18.3355 42.5268 18.0669 39.6589 21.2925 35.5527L13.1097 41.6658C13.1097 41.6658 17.2568 38.6386 18.3355 42.5268Z" fill="url(#paint27_linear_4778_24972)"/><path id="Vector_55" d="M25.9642 60.2335C25.4521 55.5282 25.3409 49.7859 21.2904 53.5841C21.2904 53.5841 22.2411 52.987 22.9169 54.1476C23.1247 54.5038 23.217 54.9123 23.217 55.3229V62.3452C23.217 63.642 24.2705 64.6937 25.5696 64.6937H29.4606C28.8121 64.6664 26.4049 64.2935 25.9642 60.2314V60.2335Z" fill="url(#paint28_radial_4778_24972)"/><path id="Vector_56" d="M25.385 43.9162C26.3315 44.5614 25.9286 45.9315 25.9286 45.9315C26.8268 43.0824 26.4449 42.8289 29.6244 39.2549L22.1237 44.8442C22.1237 44.8442 24.4406 43.2688 25.385 43.9162Z" fill="url(#paint29_linear_4778_24972)"/><path id="Vector_57" d="M25.3851 43.9161C24.4385 43.2709 22.1237 44.8442 22.1237 44.8442C22.1237 44.8442 25.3767 45.3134 21.9138 50.3832C23.0177 49.6856 25.2591 48.0515 25.9286 45.9314C25.9286 45.9314 26.3316 44.5613 25.3851 43.9161Z" fill="url(#paint30_linear_4778_24972)"/><path id="Vector_58" d="M30.8436 38.7643V42.8265C30.8436 42.8265 34.6381 39.4955 38.0212 37.7839C41.4042 36.0723 44.6048 33.904 45.9311 28.0298C45.9311 28.0298 44.6551 31.0759 41.782 33.1373C38.9089 35.1987 34.3736 36.1142 30.8436 38.7664V38.7643Z" fill="url(#paint31_linear_4778_24972)"/><path id="Vector_59" d="M30.8436 38.7646C30.8436 38.7646 30.9108 39.8037 31.7377 39.8142C31.7377 39.8142 31.0178 40.9036 30.8436 42.8268V38.7646Z" fill="url(#paint32_linear_4778_24972)"/><path id="Vector_60" d="M41.782 33.1376C38.9089 35.1991 34.3736 36.1146 30.8436 38.7668C30.8436 38.7668 30.9108 39.8059 31.7377 39.8164C35.8952 36.7996 38.8732 36.454 41.8723 34.0887C44.8713 31.7235 45.9311 28.0322 45.9311 28.0322C45.9311 28.0322 44.6551 31.0783 41.782 33.1397V33.1376Z" fill="url(#paint33_radial_4778_24972)"/><path id="Vector_61" d="M45.9312 38.297C45.9312 38.297 40.1493 44.2467 37.8156 46.7376C37.8156 46.7376 39.5113 46.3877 39.5113 49.8549V62.6635C39.5113 63.7843 40.4221 64.6935 41.5449 64.6935H45.9291V38.2949L45.9312 38.297Z" fill="url(#paint34_linear_4778_24972)"/><path id="Vector_62" d="M42.9846 47.7079V61.4802C42.9846 63.8244 45.9312 64.6959 45.9312 64.6959V38.2974C45.9312 38.2974 42.9846 42.2212 42.9846 47.7058V47.7079Z" fill="url(#paint35_linear_4778_24972)"/><path id="Vector_63" d="M43.0076 46.8886C43.2763 41.8377 45.929 38.2993 45.929 38.2993C45.929 38.2993 40.1471 44.249 37.8134 46.7399C37.8134 46.7399 42.2017 43.7127 43.0055 46.8845V46.8886H43.0076Z" fill="url(#paint36_linear_4778_24972)"/><path id="Vector_64" d="M39.5113 62.666V60.2715C38.571 64.5326 34.1659 62.7854 34.1659 62.7854L31.9203 64.696H36.9509C39.2531 64.696 39.5134 62.7498 39.5134 62.7498V62.7414C39.5134 62.7163 39.5113 62.6912 39.5113 62.666Z" fill="url(#paint37_linear_4778_24972)"/><path id="Vector_65" d="M45.713 31.4175C42.3383 39.8162 27.5089 41.0585 27.5089 53.0312C27.5089 59.9131 31.9204 64.698 31.9204 64.698L34.166 62.7874C34.166 62.7874 35.486 63.309 36.8355 63.0828C31.4356 52.3503 34.9782 47.1527 40.6866 41.5613C46.395 35.9698 45.713 31.4175 45.713 31.4175Z" fill="url(#paint38_linear_4778_24972)"/><path id="Vector_66" d="M36.8355 63.0828C31.4356 52.3503 34.9781 47.1527 40.6866 41.5613C46.395 35.9698 45.713 31.4175 45.713 31.4175C45.4254 38.0836 35.1565 40.2708 32.2834 48.8727C30.1008 55.4131 34.1639 62.7874 34.1639 62.7874C34.1639 62.7874 35.4839 63.309 36.8334 63.0828H36.8355Z" fill="url(#paint39_linear_4778_24972)"/><path id="Vector_67" d="M85.6951 86.083C83.9574 87.0781 81.6026 88.5425 81.6026 88.5425L81.4956 89.0222C81.4956 89.0222 83.8524 87.5579 85.5881 86.5628L85.6951 86.083Z" fill="black"/><path id="Vector_68" d="M74.5951 86.083C72.8574 87.0781 70.6999 88.0711 70.6999 88.0711L70.5929 88.5509C70.5929 88.5509 72.7504 87.5579 74.4881 86.5628L74.5951 86.083Z" fill="black"/><path id="Vector_69" d="M79.483 96.8345C78.3056 97.509 76.6372 98.4078 76.6372 98.4078L76.5637 98.7325C76.5637 98.7325 78.2322 97.8338 79.4095 97.1592L79.483 96.8345Z" fill="black"/><path id="Vector_70" d="M64.1395 87.0283C62.9012 87.7364 61.1467 88.6812 61.1467 88.6812L61.0712 89.0227C61.0712 89.0227 62.8257 88.0779 64.0639 87.3698L64.1395 87.0283Z" fill="black"/><path id="Vector_71" d="M29.8152 85.9824C28.7805 86.5753 27.2821 87.2855 27.2821 87.2855L27.2191 87.5725C27.2191 87.5725 28.7176 86.8623 29.7522 86.2694L29.8152 85.9824Z" fill="black"/><path id="Vector_72" d="M26.4006 95.6387C25.366 96.2315 23.8675 96.9417 23.8675 96.9417L23.8046 97.2287C23.8046 97.2287 25.303 96.5186 26.3377 95.9257L26.4006 95.6387Z" fill="black"/><path id="Vector_73" d="M86.2933 87.1074C86.2933 87.1074 86.3982 87.2038 86.2408 87.4824C86.0834 87.7611 85.649 88.8965 86.2408 88.8965C86.5577 88.8965 86.5808 88.4608 86.5808 88.4608C86.5808 88.4608 86.669 88.6367 86.6123 88.8127C86.5556 88.9887 86.3646 89.4307 86.0079 89.3595C85.6511 89.2883 85.4958 88.3057 86.2954 87.1074H86.2933Z" fill="black"/><path id="Vector_74" d="M68.5488 95.2485C68.5488 95.2485 68.6684 95.3575 68.49 95.6696C68.3116 95.9818 67.8247 97.2597 68.49 97.2597C68.8468 97.2597 68.872 96.7695 68.872 96.7695C68.872 96.7695 68.9706 96.9685 68.9076 97.1654C68.8447 97.3624 68.6306 97.8589 68.2277 97.7792C67.8247 97.6996 67.6526 96.5956 68.5509 95.2485H68.5488Z" fill="black"/><path id="Vector_75" d="M62.7816 96.0762C62.7816 96.0762 62.8865 96.1725 62.7291 96.4512C62.5696 96.7277 62.1373 97.8653 62.7291 97.8653C63.046 97.8653 63.0691 97.4295 63.0691 97.4295C63.0691 97.4295 63.1572 97.6055 63.1006 97.7815C63.0439 97.9574 62.8529 98.3974 62.4962 98.3283C62.1394 98.257 61.9841 97.2766 62.7837 96.0783L62.7816 96.0762Z" fill="black"/><path id="Vector_76" d="M70.5509 89.0645C70.5509 89.0645 70.6265 89.1336 70.5132 89.3284C70.3998 89.5233 70.0955 90.3277 70.5132 90.3277C70.7377 90.3277 70.7524 90.0198 70.7524 90.0198C70.7524 90.0198 70.8154 90.1434 70.7734 90.2691C70.7314 90.3948 70.5992 90.7048 70.3474 90.6545C70.0955 90.6042 69.9864 89.9108 70.5509 89.0645Z" fill="black"/><path id="Vector_77" d="M62.7836 88.7291C62.7836 88.7291 62.8906 88.8276 62.729 89.1104C62.5674 89.3932 62.1267 90.5497 62.729 90.5497C63.0522 90.5497 63.0753 90.1055 63.0753 90.1055C63.0753 90.1055 63.1656 90.2857 63.1068 90.4638C63.048 90.6418 62.855 91.0923 62.4919 91.0189C62.1288 90.9456 61.9714 89.9463 62.7836 88.7271V88.7291Z" fill="black"/><path id="Vector_78" d="M37.658 88.729C37.658 88.729 37.7734 88.8338 37.6014 89.1354C37.4293 89.4371 36.9571 90.6731 37.6014 90.6731C37.9476 90.6731 37.9707 90.1997 37.9707 90.1997C37.9707 90.1997 38.0673 90.3903 38.0043 90.583C37.9413 90.7758 37.7357 91.2534 37.3474 91.178C36.9592 91.1026 36.7913 90.0321 37.6601 88.729H37.658Z" fill="black"/><path id="Vector_79" d="M23.5361 87.4995C23.5361 87.4995 23.6515 87.6043 23.4794 87.9059C23.3073 88.2076 22.8351 89.4436 23.4794 89.4436C23.8257 89.4436 23.8488 88.9702 23.8488 88.9702C23.8488 88.9702 23.9453 89.1608 23.8824 89.3536C23.8194 89.5463 23.6137 90.0239 23.2255 89.9485C22.8372 89.8731 22.6693 88.8026 23.5382 87.4995H23.5361Z" fill="black"/><path id="Vector_80" d="M17.1875 95.6387C17.1875 95.6387 17.3239 95.7623 17.1203 96.1205C16.9168 96.4787 16.3585 97.9389 17.1203 97.9389C17.5296 97.9389 17.5569 97.3775 17.5569 97.3775C17.5569 97.3775 17.6702 97.6037 17.5967 97.83C17.5233 98.0563 17.2798 98.6219 16.8202 98.5318C16.3606 98.4417 16.1612 97.1785 17.1896 95.6387H17.1875Z" fill="black"/><path id="Vector_81" d="M53.5893 89.2593C53.5893 89.2593 53.6879 89.3494 53.5389 89.6091C53.3899 89.8689 52.987 90.9269 53.5389 90.9269C53.8348 90.9269 53.8558 90.5204 53.8558 90.5204C53.8558 90.5204 53.9377 90.6838 53.8852 90.8493C53.8327 91.0149 53.6543 91.4234 53.3227 91.3584C52.9912 91.2935 52.8463 90.378 53.5893 89.2614V89.2593Z" fill="black"/><path id="Vector_82" d="M42.269 86.2129C42.269 86.2129 42.3676 86.303 42.2186 86.5627C42.0696 86.8225 41.6666 87.8805 42.2186 87.8805C42.5145 87.8805 42.5355 87.4741 42.5355 87.4741C42.5355 87.4741 42.6174 87.6375 42.5649 87.803C42.5124 87.9685 42.334 88.377 42.0024 88.312C41.6708 88.2471 41.526 87.3316 42.269 86.215V86.2129Z" fill="black"/><path id="Vector_83" d="M88.1274 93.2354C88.1274 93.2354 86.969 93.2899 85.8483 92.7703C84.7255 92.2508 84.2239 91.8841 83.2543 91.9994C82.2847 92.1167 82.1315 93.0301 82.249 93.7654C82.3078 94.1299 82.3938 94.6809 82.4631 95.169C81.8062 95.2633 81.1619 95.1628 80.8933 94.5468C80.3539 93.3171 80.6771 87.7969 80.0769 86.7222L79.655 87.5539C79.655 87.5539 79.9698 87.7969 79.9782 89.0245C79.9866 90.2522 80.4714 95.0727 80.4714 95.0727C80.4714 95.0727 80.633 96.1118 82.1231 96.0322C82.2616 96.0238 82.4127 95.9965 82.5659 95.9609C82.5785 96.0783 82.5827 96.162 82.5806 96.2019C82.5806 96.2019 82.6226 96.1034 82.6751 95.9358C84.163 95.544 86.2113 94.0943 87.4748 94.1593L88.1295 93.2354H88.1274ZM84.1064 94.6243C83.8461 94.7563 83.355 94.97 82.8262 95.0957C82.8408 94.8757 82.8387 94.6306 82.8052 94.373C82.6709 93.3506 82.2763 93.0112 83.0654 92.9044C83.8545 92.7975 85.4264 93.4512 85.7853 93.7193C85.7853 93.7193 84.7444 94.3017 84.1064 94.6243Z" fill="black"/><path id="Vector_84" d="M85.481 94.8569L86.3604 95.521L85.8 96.183L84.9207 95.521L85.481 94.8569Z" fill="black"/><path id="Vector_85" d="M63.5791 95.7617L64.4585 96.4237L63.9002 97.0878L63.0188 96.4237L63.5791 95.7617Z" fill="black"/><path id="Vector_86" d="M58.6765 95.7617L59.5559 96.4237L58.9976 97.0878L58.1183 96.4237L58.6765 95.7617Z" fill="black"/><path id="Vector_87" d="M57.3396 95.7617L58.219 96.4237L57.6586 97.0878L56.7793 96.4237L57.3396 95.7617Z" fill="black"/><path id="Vector_88" d="M21.0868 96.8325L21.9662 97.4966L21.4058 98.1586L20.5265 97.4966L21.0868 96.8325Z" fill="black"/><path id="Vector_89" d="M19.7479 96.8325L20.6272 97.4966L20.069 98.1586L19.1875 97.4966L19.7479 96.8325Z" fill="black"/><path id="Vector_90" d="M17.0721 90.3589L17.9514 91.0209L17.3911 91.685L16.5117 91.0209L17.0721 90.3589Z" fill="black"/><path id="Vector_91" d="M15.7331 90.3589L16.6124 91.0209L16.0542 91.685L15.1748 91.0209L15.7331 90.3589Z" fill="black"/><path id="Vector_92" d="M67.8771 89.8794L68.7565 90.5414L68.1961 91.2055L67.3168 90.5414L67.8771 89.8794Z" fill="black"/><path id="Vector_93" d="M66.5381 89.8794L67.4175 90.5414L66.8592 91.2055L65.9799 90.5414L66.5381 89.8794Z" fill="black"/><path id="Vector_94" d="M83.9364 96.8996C83.9364 96.8996 84.2764 96.5561 84.4484 96.753C84.8262 97.1825 83.4663 97.5931 83.8356 98.4332C84.1315 99.1056 86.1526 97.9555 86.5555 97.1217C86.5555 97.1217 84.8787 98.6531 84.2134 98.1692C83.5481 97.6853 85.3719 96.8117 84.7989 96.3277C84.3288 95.9318 83.9364 96.8976 83.9364 96.8976V96.8996Z" fill="black"/><path id="Vector_95" d="M73.1469 95.5275C73.1469 95.5275 73.1553 95.6197 73.1113 95.6741C73.0672 95.7286 72.8237 95.9653 72.893 96.0952C72.9371 96.179 73.2288 95.9318 73.3904 96.1141C73.6338 96.3885 72.3998 97.3731 72.5362 97.7293C72.6726 98.0854 73.8332 97.6581 74.1942 97.1029C74.1942 97.1029 73.5289 98.429 72.4082 98.1818C72.0262 98.098 72.1899 97.7188 72.4795 97.3606C72.7503 97.0233 73.1238 96.7132 73.0714 96.5142C73.0315 96.3634 72.5803 96.6504 72.5866 96.2167C72.5908 95.9674 73.1469 95.5254 73.1469 95.5254V95.5275Z" fill="black"/><path id="Vector_96" d="M34.1911 87.5789C34.1911 87.5789 34.636 87.1704 35.0368 87.2165C35.4377 87.2626 35.7651 87.3988 35.9519 87.3129C35.9519 87.3129 35.1838 87.9351 34.2498 88.1257C34.2498 88.1257 35.0096 88.2074 35.3328 88.1257C35.656 88.044 36.8795 86.6592 36.8795 86.6592C36.8795 86.6592 36.2247 86.6781 35.7693 86.6006C35.3139 86.5231 34.892 86.3597 34.7011 86.6006C34.5101 86.8415 34.1827 87.4407 34.1911 87.581V87.5789Z" fill="black"/><path id="Vector_97" d="M52.84 87.5789C52.84 87.5789 53.2849 87.1704 53.6858 87.2165C54.0866 87.2626 54.414 87.3988 54.6008 87.3129C54.6008 87.3129 53.8327 87.9351 52.8988 88.1257C52.8988 88.1257 53.6585 88.2074 53.9817 88.1257C54.3049 88.044 55.5284 86.6592 55.5284 86.6592C55.5284 86.6592 54.8736 86.6781 54.4182 86.6006C53.9628 86.5231 53.541 86.3597 53.35 86.6006C53.159 86.8415 52.8316 87.4407 52.84 87.581V87.5789Z" fill="black"/><path id="Vector_98" d="M67.3839 87.7046C67.3839 87.7046 67.2916 87.6501 67.1741 87.5642C67.6841 86.5985 67.0733 86.2402 67.0733 86.2402C67.0733 86.2402 66.4668 86.6969 66.4269 87.4029C66.4269 87.4029 66.5906 87.558 66.8026 87.7298C66.4248 88.2388 65.6546 88.97 64.175 89.963C64.175 89.963 66.0597 89.2088 66.9831 87.8701C67.1069 87.9623 67.2349 88.0461 67.3483 88.1006L67.3839 87.7025V87.7046ZM66.6641 87.0279C66.6641 87.0279 66.79 86.6907 67.0251 86.7891C67.1279 86.8331 67.2098 87.0342 66.9978 87.4281C66.8572 87.3108 66.7187 87.1683 66.6641 87.0279Z" fill="black"/><path id="Vector_99" d="M77.8796 86.5084C77.5899 86.5084 77.3192 87.5496 77.2269 88.2535C77.2269 88.2535 77.2269 88.2577 77.2269 88.2598C77.1933 88.1027 77.1366 87.9204 77.0359 87.7193C76.7274 87.1097 76.209 86.6551 75.9026 86.6781C75.5941 86.7012 75.6067 87.4072 75.953 87.5433C75.953 87.5433 75.9362 87.3443 76.1062 87.2878C76.1062 87.2878 76.9666 87.6753 77.1198 88.6181C77.1198 88.6181 76.5847 89.6467 74.7903 90.0845C74.7903 90.0845 76.3685 90.1579 77.2583 88.7815C77.2583 88.7815 77.2709 88.7144 77.2688 88.5992C77.2688 88.5992 77.5039 86.984 77.7368 86.9484C77.9698 86.9128 78.0454 87.1704 78.0454 87.1704C78.0454 87.1704 78.1944 86.8646 78.2342 86.72C78.2342 86.72 78.1713 86.5063 77.8817 86.5063L77.8796 86.5084Z" fill="black"/><path id="Vector_100" d="M50.9638 86.5084C50.6742 86.5084 50.4034 87.5496 50.3111 88.2535C50.3111 88.2535 50.3111 88.2577 50.3111 88.2598C50.2775 88.1027 50.2208 87.9204 50.1201 87.7193C49.8116 87.1097 49.2932 86.6551 48.9868 86.6781C48.6783 86.7012 48.6909 87.4072 49.0372 87.5433C49.0372 87.5433 49.0204 87.3443 49.1904 87.2878C49.1904 87.2878 50.0509 87.6753 50.2041 88.6181C50.2041 88.6181 49.6689 89.6467 47.8745 90.0845C47.8745 90.0845 49.4527 90.1579 50.3426 88.7815C50.3426 88.7815 50.3552 88.7144 50.3531 88.5992C50.3531 88.5992 50.5881 86.984 50.8211 86.9484C51.054 86.9128 51.1296 87.1704 51.1296 87.1704C51.1296 87.1704 51.2786 86.8646 51.3185 86.72C51.3185 86.72 51.2555 86.5063 50.9659 86.5063L50.9638 86.5084Z" fill="black"/><path id="Vector_101" d="M54.6071 97.0251C54.4728 97.1738 54.3154 97.1508 54.223 97.1215C54.2524 97.023 54.2587 96.9182 54.2335 96.8135C54.2335 96.8135 53.9607 97.3372 53.6816 97.3414C53.4024 97.3456 53.564 96.6564 53.564 96.6564L53.4906 96.5391C53.4906 96.5391 52.4265 98.3135 50.0907 98.6089C50.0907 98.6089 51.7298 98.6319 52.3132 98.1689C52.8987 97.708 53.3227 97.1675 53.3227 97.1675C53.3227 97.1675 53.3395 97.6913 53.585 97.7081C53.7046 97.7164 53.8893 97.6117 54.0341 97.4483C54.0446 97.5258 54.0698 97.6033 54.1265 97.6012C54.3364 97.597 54.733 97.0858 54.733 97.0858C54.8212 96.8428 54.8337 96.5726 54.8337 96.5726C54.8065 96.7067 54.605 97.023 54.605 97.023L54.6071 97.0251Z" fill="black"/><path id="Vector_102" d="M37.041 97.0251C36.9067 97.1738 36.7493 97.1508 36.657 97.1215C36.6864 97.023 36.6927 96.9182 36.6675 96.8135C36.6675 96.8135 36.3946 97.3372 36.1155 97.3414C35.8364 97.3456 35.998 96.6564 35.998 96.6564L35.9245 96.5391C35.9245 96.5391 34.8605 98.3135 32.5247 98.6089C32.5247 98.6089 34.1637 98.6319 34.7472 98.1689C35.3327 97.708 35.7566 97.1675 35.7566 97.1675C35.7566 97.1675 35.7734 97.6913 36.019 97.7081C36.1386 97.7164 36.3233 97.6117 36.4681 97.4483C36.4786 97.5258 36.5038 97.6033 36.5604 97.6012C36.7703 97.597 37.167 97.0858 37.167 97.0858C37.2551 96.8428 37.2677 96.5726 37.2677 96.5726C37.2404 96.7067 37.0389 97.023 37.0389 97.023L37.041 97.0251Z" fill="black"/><path id="Vector_103" d="M79.0339 92.3512C78.5952 91.2786 77.5627 91.5405 76.9772 92.2947C76.8722 92.1522 76.7925 92.0286 76.761 91.9427C76.761 91.9427 75.9299 94.2597 74.8071 94.2597C74.358 94.2597 73.9949 94.0398 73.6927 93.7695C74.0495 93.4259 74.4272 93.1515 74.9057 93.0761L75.4178 92.3051C75.4178 92.3051 73.8018 90.9518 71.3149 92.3051L71.2246 93.1662C71.2246 93.1662 71.8794 92.9504 72.3831 93.4448C72.4964 93.5558 72.6035 93.7087 72.7168 93.8743C72.1145 94.3498 71.4114 94.7877 70.9203 94.7269C68.6558 94.4504 69.8542 93.2562 69.1532 93.0405C67.2119 92.4413 66.8531 96.3484 66.1521 96.3484C65.4511 96.3484 64.3031 94.9238 65.5057 92.8079C65.5057 92.8079 65.1069 93.0782 64.9118 93.8114C64.7166 94.5446 64.9495 96.8721 66.1794 96.8721C67.4092 96.8721 67.4449 93.8743 68.6474 93.8743C69.3379 93.8743 68.6831 95.6047 70.7839 95.6047C71.8563 95.6047 72.5069 95.0097 73.0904 94.3959C73.4241 94.8086 73.869 95.171 74.6161 95.1668C75.9887 95.1585 76.5637 93.0698 76.5637 93.0698C76.5637 93.0698 76.9625 94.1487 78.2322 94.949L79.0318 94.1215C79.0318 94.1215 79.4872 93.472 79.0318 92.3554L79.0339 92.3512ZM72.6475 92.7723C72.6475 92.7723 73.4388 92.523 73.9215 92.7786C73.9215 92.7786 73.6717 93.0426 73.3023 93.3736C73.0442 93.0845 72.8343 92.8226 72.6475 92.7723ZM78.6057 94.1026C78.6057 94.1026 77.6697 93.1662 77.1262 92.4853C77.2794 92.3617 77.8166 91.993 78.2511 92.4748C78.7631 93.0446 78.6057 94.1005 78.6057 94.1005V94.1026Z" fill="black"/><path id="Vector_104" d="M63.47 91.7625L63.0209 92.7178C63.0209 92.7178 63.5581 93.2017 63.577 93.6061C63.5938 93.9601 62.853 94.4608 62.0849 94.069C62.0513 93.9475 62.0135 93.8281 61.9694 93.7171C61.7491 93.1598 61.3902 92.7618 61.3902 92.7618L61.025 93.6102C61.025 93.6102 61.8435 94.5844 61.768 95.5523C61.768 95.5523 61.6294 95.9587 61.2412 96.3588C60.4752 97.1507 59.025 98.2233 57.7678 98.2233C55.8727 98.2233 55.9189 95.6696 56.3219 94.5488C56.3219 94.5488 55.9189 94.7813 55.73 96.252C55.5411 97.7226 56.6723 99.2457 57.7762 99.2457C58.8802 99.2457 62.0198 96.8449 62.2003 95.6612C62.236 95.435 62.2444 95.1877 62.2276 94.9343C62.5529 94.9762 63.1069 94.995 63.3777 94.6871C63.8121 94.1947 64.3347 93.3211 63.4658 91.7583L63.47 91.7625Z" fill="black"/><path id="Vector_105" d="M59.9503 88.3707L59.1339 86.5083C58.8548 86.6801 58.4687 87.2059 58.4687 87.2059C58.5316 87.2499 58.624 87.3274 58.731 87.4259C58.8674 88.3665 59.4592 92.4999 59.411 93.5138C59.411 93.5138 59.2158 94.3602 58.3679 94.3602C57.7761 94.3602 57.4361 93.5034 57.285 92.9838C57.3186 92.8686 57.3396 92.7638 57.3438 92.6717C57.3836 91.9866 56.8044 90.7422 56.8044 90.7422C56.8044 90.7422 56.5022 91.2136 56.3595 91.5278C56.3595 91.5278 56.8653 92.4077 56.6827 93.5914C56.6827 93.5914 56.4602 94.1151 55.8621 94.1151C55.4151 94.1151 55.2388 93.6521 55.1779 93.4154C55.2157 93.1807 55.2157 92.9796 55.1695 92.8581C55.1695 92.8581 54.8799 94.289 53.8557 94.289C53.5283 94.289 53.3353 93.9747 53.2471 93.7841C53.3143 93.5536 53.3374 93.319 53.2912 93.0928C53.2912 93.0928 52.4622 94.4231 51.8578 94.4042C51.5094 94.3916 51.1736 94.2031 50.9491 94.0439C50.7266 93.4049 50.4706 92.9314 50.4706 92.9314L50.0676 93.8113C50.0676 93.8113 50.821 94.8798 50.8819 95.6256C50.8819 95.6256 50.0046 98.15 46.6929 98.15C43.1293 98.15 44.7453 94.7101 44.611 94.5027C44.611 94.5027 43.866 95.5145 43.866 96.6709C43.866 97.8274 44.9258 99.0718 46.7286 99.0718C48.7601 99.0718 51.2702 96.9307 51.2702 95.6675C51.2702 95.5082 51.2576 95.3469 51.2345 95.1835C51.3709 95.2547 51.5619 95.3029 51.8305 95.2673C52.1369 95.2275 52.5168 94.9552 52.8169 94.5844C53.0645 94.8441 53.5116 95.2212 53.9796 95.1542C54.3154 95.106 54.5987 94.8148 54.8085 94.4503C54.9366 94.643 55.1737 94.8441 55.6081 94.8441C56.1265 94.8441 56.6617 94.2575 56.9996 93.6521C57.1234 94.2492 57.4424 95.2149 58.2189 95.2149C59.3438 95.2149 59.7699 93.9726 59.7887 93.1849C59.8055 92.5271 59.39 89.0537 59.2536 87.935C59.6146 88.3058 59.9503 88.6703 59.9503 88.6703V88.3665V88.3707Z" fill="black"/><path id="Vector_106" d="M47.4003 88.0839C47.1988 87.6921 46.7476 86.0664 46.7476 86.0664C46.4664 86.2172 46.0781 86.6488 46.0781 86.6488C46.1243 86.7661 46.1957 86.8939 46.2775 87.0259C46.3635 88.2766 46.7119 93.3778 46.6804 93.8638C46.6448 94.419 46.5461 95.4686 46.5461 95.4686C46.5461 95.4686 47.2009 94.6432 47.1296 93.0992C47.0666 91.7354 46.8987 88.8045 46.8169 87.7403C47.1044 88.0776 47.3604 88.3311 47.3604 88.3311L47.4003 88.0859V88.0839Z" fill="black"/><path id="Vector_107" d="M45.2869 87.996L45.2827 87.7928C45.0812 87.4011 44.3215 85.9702 44.3215 85.9702C44.0402 86.1211 43.7569 86.3724 43.7569 86.3724C43.7989 86.4751 43.864 86.5861 43.9437 86.6972C43.9794 87.2 44.0738 88.4548 44.1892 89.5358C44.3383 90.9227 44.7664 92.1084 44.4159 93.1643C44.0675 94.2202 41.866 96.313 39.5847 97.0714C39.5847 97.0714 41.2532 97.1929 42.2501 96.3382C43.2469 95.4834 44.7958 94.2097 44.8587 92.2572C44.9133 90.5582 44.6761 88.2013 44.6132 87.4283C44.9658 87.753 45.2848 87.9939 45.2848 87.9939L45.2869 87.996Z" fill="black"/><path id="Vector_108" d="M42.2982 90.1663C40.8481 88.8946 40.2121 88.0336 39.954 87.6125C40.103 87.6502 40.2625 87.6817 40.4367 87.7047C40.4367 87.7047 39.2405 86.5169 38.9844 86.0371L38.4031 86.63C38.4031 86.63 38.5038 86.7997 38.7452 87.0071C38.9319 87.403 39.5699 88.6097 40.9383 89.7892C42.6089 91.2263 43.8114 92.9295 43.7589 93.9435C43.7589 93.9435 44.4263 92.035 42.2982 90.1663Z" fill="black"/><path id="Vector_109" d="M28.3861 90.1663C26.9359 88.8946 26.3 88.0336 26.0419 87.6125C26.1909 87.6502 26.3504 87.6817 26.5246 87.7047C26.5246 87.7047 25.3283 86.5169 25.0723 86.0371L24.491 86.63C24.491 86.63 24.5917 86.7997 24.8331 87.0071C25.0198 87.403 25.6578 88.6097 27.0262 89.7892C28.6967 91.2263 29.8993 92.9295 29.8468 93.9435C29.8468 93.9435 30.5142 92.035 28.3861 90.1663Z" fill="black"/><path id="Vector_110" d="M41.9415 94.3957C41.9415 94.3957 41.8261 94.6492 41.8219 94.7351C41.8219 94.7351 41.8009 94.4418 41.4756 94.5005C41.1503 94.5591 41.3266 95.0368 41.6582 95.0745C41.9898 95.1122 42.2962 94.8985 42.2962 94.8985C42.2962 94.8985 42.2752 95.0808 42.1849 95.152C42.0947 95.2232 40.8837 95.6695 40.6697 95.9774C40.6697 95.9774 40.7326 95.7197 40.846 95.5836C40.9593 95.4474 41.272 95.3259 41.272 95.3259C41.272 95.3259 40.8921 95.2735 40.846 94.9698C40.7998 94.666 41.6204 94.1904 41.698 94.1904C41.7757 94.1904 41.9415 94.2952 41.9415 94.3957Z" fill="black"/><path id="Vector_111" d="M40.7578 92.0434C40.7578 92.0434 40.4262 92.6048 40.3381 92.7661C40.3381 92.7661 40.678 93.2836 40.6697 93.7005C40.6697 93.7005 40.5836 94.2871 39.7651 94.2871C39.2782 94.2871 39.104 93.9686 39.0432 93.713C39.1124 93.4595 39.1208 93.1977 39.0516 92.9484C39.0516 92.9484 38.359 94.4211 37.3957 94.4211C36.5247 94.4211 36.3484 93.9581 36.3128 93.5035C36.4093 93.3129 36.4471 93.1244 36.4051 92.9505C36.4051 92.9505 34.5331 94.463 32.8038 94.463C32.2455 94.463 31.6474 93.8618 31.3578 92.8604C30.8142 90.9791 30.8268 88.0671 30.8352 87.4826C31.1647 87.7822 31.4522 87.998 31.4522 87.998L31.448 87.7948C31.2465 87.403 30.4868 85.9722 30.4868 85.9722C30.2056 86.123 29.9222 86.3744 29.9222 86.3744C29.9747 86.5085 30.0671 86.6509 30.1804 86.7976C30.2769 87.6733 30.554 90.139 30.7806 91.838C30.7512 92.2047 30.6862 92.8541 30.5561 93.3066C30.5561 93.3066 29.2591 95.6634 25.6913 97.088C25.6913 97.088 27.5591 97.199 28.3839 96.4302C29.1541 95.7137 30.7198 94.241 30.9422 92.9547C30.9716 93.1411 31.001 93.292 31.0241 93.3967C31.2654 94.463 31.5445 95.2424 32.9276 95.3136C33.8342 95.3597 35.1459 94.7605 35.8783 94.0587C35.8783 94.4526 36.0064 95.213 36.9906 95.213C37.6916 95.213 38.3065 94.8653 38.6885 94.3876C38.8375 94.66 39.146 94.9993 39.763 94.9993C40.7935 94.9993 41.0285 93.3192 41.0684 93.1642C41.1083 93.0091 41.1545 92.4959 40.7536 92.0434H40.7578Z" fill="black"/><path id="Vector_112" d="M33.3285 91.1843C33.3285 91.1843 33.5677 91.046 33.6475 91.1528C33.7272 91.2597 33.2844 92.0201 33.2844 92.0201L33.4145 91.9803C33.4145 91.9803 33.9476 91.2178 33.9518 90.8721C33.956 90.5264 33.5845 90.6417 33.36 90.9831L33.3264 91.1843H33.3285Z" fill="black"/><path id="Vector_113" d="M26.1362 91.8108C25.4751 91.8108 25.0932 92.2382 24.9337 92.4707C24.8413 92.3346 24.77 92.211 24.7343 92.1125C24.7343 92.1125 24.0879 94.4086 22.8581 94.4086C21.6282 94.4086 21.5611 93.1202 21.5611 93.1202C21.5611 93.1202 20.9021 94.8716 19.5169 94.8716C17.8695 94.8716 18.7509 92.6362 17.8695 92.6362C15.9932 92.6362 15.5189 96.4973 14.6921 96.4973C13.8652 96.4973 13.0845 94.6432 14.1002 92.984C14.1002 92.984 13.9575 93.0469 13.8127 93.2522C13.7476 93.3464 13.351 94.1446 13.4181 94.9826C13.5 95.9903 14.1023 97.0524 14.7739 97.0524C15.7246 97.0524 16.434 93.5392 17.5379 93.5392C18.1654 93.5392 18.0038 95.7787 19.54 95.7787C20.6293 95.7787 21.2484 94.5804 21.2484 94.5804C21.2484 94.5804 21.7835 95.3471 22.7447 95.3471C23.7059 95.3471 24.5664 93.2501 24.5664 93.2501C24.5664 93.2501 25.1771 94.7731 26.1908 95.0957C26.1908 95.0957 26.9358 94.4505 27.089 94.0566C27.2422 93.6628 27.045 91.8066 26.1383 91.8066L26.1362 91.8108ZM26.5287 94.2535C26.5287 94.2535 25.5612 93.3192 25.0386 92.6174C25.1205 92.5273 25.2905 92.3974 25.5948 92.4205C26.0586 92.454 26.6567 93.1851 26.5287 94.2535Z" fill="black"/><path id="Vector_114" d="M21.7878 86.2779C21.7878 86.2779 18.3481 87.6627 17.645 88.176C17.5694 88.2304 17.5547 88.3373 17.6135 88.4085C17.6786 88.4839 17.7835 88.5949 17.9493 88.7311V89.3366C17.9493 89.3366 17.3617 88.9071 17.3407 88.5928C17.3197 88.2786 17.3973 87.9623 17.8989 87.692C18.4005 87.4197 21.8634 86.0098 21.8634 86.0098L21.7836 86.2821L21.7878 86.2779Z" fill="black"/><path id="Vector_115" d="M13.5819 86.6072L14.0079 87.0722C14.0079 87.0722 14.0079 86.802 14.1779 86.8858C14.3479 86.9696 14.9461 87.9354 15.0972 88.2957L15.2399 88.3921C15.2399 88.3921 15.3721 86.6574 15.4959 86.406C15.6197 86.1546 16.0437 86.6574 16.0437 86.6574L16.2032 86.2699C16.2032 86.2699 15.7415 85.8404 15.5001 86.0729C15.2588 86.3055 15.1475 87.7573 15.1475 87.7573C15.1475 87.7573 14.5914 86.6239 13.9933 86.2657C13.9009 86.2091 13.7813 86.2259 13.712 86.3097C13.6638 86.3683 13.6134 86.4626 13.584 86.6072H13.5819Z" fill="black"/><path id="Vector_116" d="M14.5284 88.7519C14.5284 88.7519 14.6292 88.7247 14.6879 88.643C14.7467 88.5613 14.9209 88.379 15.2 88.5927C15.2 88.5927 14.3857 88.9426 14.3081 89.6465C14.2031 90.5976 14.7278 92.0955 14.7089 92.8287C14.7089 92.8287 14.8663 92.3909 14.7467 91.5864C14.6271 90.7819 14.3584 90.0613 14.4529 89.6234C14.5473 89.1856 15.2273 89.0452 15.6177 88.9845C15.6177 88.9845 15.859 88.6619 15.8674 88.5948C15.8737 88.5278 15.3889 88.0438 15.0531 87.9831C14.7173 87.9223 14.5389 88.3727 14.5284 88.7519Z" fill="black"/><path id="Vector_117" d="M21.2653 87.7614C21.2653 87.7614 21.0596 87.9792 21.0386 88.1447C21.0386 88.1447 21.0512 88.6643 21.1142 88.8214C21.1142 88.8214 21.0659 88.9094 20.8518 88.9094C20.7448 88.9094 20.642 88.8361 20.5643 88.7649C20.5517 88.459 20.5496 87.9793 20.5496 87.9793C20.4258 88.1029 20.2999 88.3836 20.2999 88.3836C20.2873 88.5973 20.3167 89.0058 20.3167 89.0058C20.3167 89.0058 20.2537 89.1713 19.9998 89.1608C19.6787 89.1503 19.7542 88.2139 19.7542 88.2139L19.5674 88.5826C19.5674 88.5826 19.5359 89.5526 19.9557 89.5526C20.2033 89.5526 20.3733 89.3431 20.472 89.1692C20.5286 89.2237 20.6168 89.2718 20.7532 89.2718C21.0554 89.2718 21.3009 88.8047 21.3009 88.8047C21.3009 88.8047 21.2254 88.1238 21.2653 87.7593V87.7614Z" fill="black"/><path id="Vector_118" d="M49.2975 2.53027L50.3006 3.86267L47.054 2.85499L49.2975 2.53027Z" fill="url(#paint40_linear_4778_24972)"/><path id="Vector_119" d="M50.3006 3.86217L48.6783 4.43409L47.054 2.85449L50.3006 3.86217Z" fill="url(#paint41_linear_4778_24972)"/><path id="Vector_120" d="M50.3007 3.8623L48.2943 6.66536L48.6784 4.43423L50.3007 3.8623Z" fill="url(#paint42_linear_4778_24972)"/><path id="Vector_121" d="M50.3007 3.8623V5.61369L48.2943 6.66536L50.3007 3.8623Z" fill="url(#paint43_linear_4778_24972)"/><path id="Vector_122" d="M50.3007 3.8623L52.3091 6.66536L50.3007 5.61369V3.8623Z" fill="url(#paint44_linear_4778_24972)"/><path id="Vector_123" d="M53.5494 2.85449L50.3007 3.86217L51.925 4.43409L53.5494 2.85449Z" fill="url(#paint45_linear_4778_24972)"/><path id="Vector_124" d="M53.5494 2.85499L51.3059 2.53027L50.3007 3.86267L53.5494 2.85499Z" fill="url(#paint46_linear_4778_24972)"/><path id="Vector_125" d="M50.3007 0.5L51.3059 2.53001L50.3007 3.86241V0.5Z" fill="url(#paint47_linear_4778_24972)"/><path id="Vector_126" d="M51.925 4.43423L52.3091 6.66536L50.3007 3.8623L51.925 4.43423Z" fill="url(#paint48_linear_4778_24972)"/><path id="Vector_127" d="M50.3007 0.5V3.86241L49.2975 2.53001L50.3007 0.5Z" fill="url(#paint49_linear_4778_24972)"/><path id="Vector_128" d="M53.5598 2.61621C53.7655 3.06244 53.883 3.55894 53.883 4.08268C53.883 6.0289 52.3027 7.6064 50.353 7.6064C48.4033 7.6064 46.823 6.0289 46.823 4.08268C46.823 3.55894 46.9405 3.06244 47.1462 2.61621C46.5817 3.31802 46.2438 4.20838 46.2438 5.17834C46.2438 7.44299 48.0843 9.28027 50.353 9.28027C52.6217 9.28027 54.4623 7.44299 54.4623 5.17834C54.4623 4.20838 54.1223 3.31802 53.5598 2.61621Z" fill="url(#paint50_linear_4778_24972)"/><path id="Vector_129" d="M53.5683 2.63281C53.7698 3.07485 53.8852 3.56507 53.8852 4.08252C53.8852 6.02874 52.3049 7.60624 50.3552 7.60624C48.4055 7.60624 46.8252 6.02874 46.8252 4.08252C46.8252 3.56507 46.9406 3.07694 47.1421 2.63281C46.7706 3.2194 46.5524 3.91283 46.5524 4.65654C46.5524 6.75359 48.2544 8.45261 50.3552 8.45261C52.456 8.45261 54.158 6.75359 54.158 4.65654C54.158 3.91074 53.9398 3.2194 53.5683 2.63281Z" fill="url(#paint51_linear_4778_24972)"/><path id="Vector_130" d="M53.3752 10.832L45.2092 16.9221C45.2092 16.9221 47.5703 15.2901 49.1464 16.0862C49.9879 16.5115 50.3552 17.693 50.5147 18.7028C50.8295 13.4528 53.3752 10.832 53.3752 10.832Z" fill="url(#paint52_linear_4778_24972)"/></g><defs><linearGradient id="paint0_linear_4778_24972" x1="21.3681" y1="44.7264" x2="21.3681" y2="64.9763" gradientUnits="userSpaceOnUse"><stop offset="0.32" stop-color="#B0A63D"/><stop offset="1" stop-color="#868446"/></linearGradient><linearGradient id="paint1_linear_4778_24972" x1="78.037" y1="59.1629" x2="83.8021" y2="59.1629" gradientUnits="userSpaceOnUse"><stop stop-color="#7B7357"/><stop offset="1" stop-color="#D6C75A"/></linearGradient><linearGradient id="paint2_linear_4778_24972" x1="54.3846" y1="74.8227" x2="87.5713" y2="74.8227" gradientUnits="userSpaceOnUse"><stop offset="0.09" stop-color="#7F793D"/><stop offset="1" stop-color="#888649"/></linearGradient><linearGradient id="paint3_linear_4778_24972" x1="54.3846" y1="75.644" x2="87.5713" y2="75.644" gradientUnits="userSpaceOnUse"><stop stop-color="#B2A73D"/><stop offset="1" stop-color="#878547"/></linearGradient><linearGradient id="paint4_linear_4778_24972" x1="13.009" y1="84.1264" x2="87.5714" y2="84.1264" gradientUnits="userSpaceOnUse"><stop stop-color="#B2A73D"/><stop offset="1" stop-color="#878547"/></linearGradient><linearGradient id="paint5_linear_4778_24972" x1="13.009" y1="101.089" x2="87.5714" y2="101.089" gradientUnits="userSpaceOnUse"><stop stop-color="#B2A73D"/><stop offset="1" stop-color="#878547"/></linearGradient><linearGradient id="paint6_linear_4778_24972" x1="12.8725" y1="66.3423" x2="88.0645" y2="66.3423" gradientUnits="userSpaceOnUse"><stop offset="0.09" stop-color="#7F793D"/><stop offset="1" stop-color="#888649"/></linearGradient><linearGradient id="paint7_linear_4778_24972" x1="12.8725" y1="67.1635" x2="88.0645" y2="67.1635" gradientUnits="userSpaceOnUse"><stop stop-color="#B2A73D"/><stop offset="1" stop-color="#878547"/></linearGradient><linearGradient id="paint8_linear_4778_24972" x1="54.3846" y1="70.9931" x2="86.2197" y2="70.9931" gradientUnits="userSpaceOnUse"><stop stop-color="#E5D31D"/><stop offset="0.17" stop-color="#B3A169"/><stop offset="0.37" stop-color="#D0BA35"/><stop offset="0.56" stop-color="#7E7350"/></linearGradient><linearGradient id="paint9_linear_4778_24972" x1="45.9291" y1="74.8228" x2="13.4938" y2="74.8228" gradientUnits="userSpaceOnUse"><stop offset="0.09" stop-color="#7F793D"/><stop offset="1" stop-color="#888649"/></linearGradient><linearGradient id="paint10_linear_4778_24972" x1="45.9291" y1="75.6439" x2="13.4938" y2="75.6439" gradientUnits="userSpaceOnUse"><stop stop-color="#B2A73D"/><stop offset="1" stop-color="#878547"/></linearGradient><linearGradient id="paint11_linear_4778_24972" x1="13.009" y1="67.1635" x2="45.9291" y2="67.1635" gradientUnits="userSpaceOnUse"><stop offset="0.09" stop-color="#7F793D"/><stop offset="1" stop-color="#888649"/></linearGradient><linearGradient id="paint12_linear_4778_24972" x1="13.009" y1="66.3402" x2="45.9291" y2="66.3402" gradientUnits="userSpaceOnUse"><stop stop-color="#B2A73D"/><stop offset="1" stop-color="#878547"/></linearGradient><linearGradient id="paint13_linear_4778_24972" x1="45.9291" y1="70.9932" x2="14.8138" y2="70.9932" gradientUnits="userSpaceOnUse"><stop offset="0.32" stop-color="#B0A63D"/><stop offset="1" stop-color="#868446"/></linearGradient><radialGradient id="paint14_radial_4778_24972" cx="0" cy="0" r="1" gradientUnits="userSpaceOnUse" gradientTransform="translate(80.4611 64.3208) scale(14.2564 14.231)"><stop offset="0.32" stop-color="#B0A63D"/><stop offset="1" stop-color="#868446"/></radialGradient><linearGradient id="paint15_linear_4778_24972" x1="67.5791" y1="44.798" x2="60.2023" y2="47.0091" gradientUnits="userSpaceOnUse"><stop stop-color="#E5D31D"/><stop offset="1" stop-color="#B3A169"/></linearGradient><radialGradient id="paint16_radial_4778_24972" cx="0" cy="0" r="1" gradientUnits="userSpaceOnUse" gradientTransform="translate(62.005 46.74) scale(12.1011 12.0795)"><stop offset="0.32" stop-color="#B0A63D"/><stop offset="1" stop-color="#868446"/></radialGradient><linearGradient id="paint17_linear_4778_24972" x1="80.6351" y1="39.8996" x2="83.5413" y2="41.5716" gradientUnits="userSpaceOnUse"><stop offset="0.32" stop-color="#B0A63D"/><stop offset="1" stop-color="#868446"/></linearGradient><linearGradient id="paint18_linear_4778_24972" x1="84.1735" y1="39.8874" x2="78.0972" y2="45.4896" gradientUnits="userSpaceOnUse"><stop stop-color="#E5D31D"/><stop offset="1" stop-color="#B3A169"/></linearGradient><linearGradient id="paint19_linear_4778_24972" x1="82.3119" y1="40.549" x2="85.2705" y2="43.2421" gradientUnits="userSpaceOnUse"><stop offset="0.32" stop-color="#B0A63D"/><stop offset="1" stop-color="#868446"/></linearGradient><linearGradient id="paint20_linear_4778_24972" x1="75.4473" y1="49.4343" x2="86.1443" y2="49.4343" gradientUnits="userSpaceOnUse"><stop offset="0.32" stop-color="#B0A63D"/><stop offset="1" stop-color="#868446"/></linearGradient><linearGradient id="paint21_linear_4778_24972" x1="84.7359" y1="47.358" x2="78.3917" y2="53.3378" gradientUnits="userSpaceOnUse"><stop stop-color="#E5D31D"/><stop offset="1" stop-color="#B3A169"/></linearGradient><linearGradient id="paint22_linear_4778_24972" x1="54.4372" y1="45.045" x2="76.4525" y2="45.045" gradientUnits="userSpaceOnUse"><stop offset="0.32" stop-color="#B0A63D"/><stop offset="1" stop-color="#868446"/></linearGradient><linearGradient id="paint23_linear_4778_24972" x1="73.1428" y1="42.332" x2="66.9516" y2="44.3266" gradientUnits="userSpaceOnUse"><stop stop-color="#E5D31D"/><stop offset="1" stop-color="#B3A169"/></linearGradient><radialGradient id="paint24_radial_4778_24972" cx="0" cy="0" r="1" gradientUnits="userSpaceOnUse" gradientTransform="translate(49.2198 45.3234) scale(33.2202 33.1611)"><stop stop-color="#E5D31D"/><stop offset="1" stop-color="#B3A169"/></radialGradient><linearGradient id="paint25_linear_4778_24972" x1="51.9292" y1="16.9221" x2="51.9292" y2="78.032" gradientUnits="userSpaceOnUse"><stop offset="0.32" stop-color="#B0A63D"/><stop offset="1" stop-color="#868446"/></linearGradient><radialGradient id="paint26_radial_4778_24972" cx="0" cy="0" r="1" gradientUnits="userSpaceOnUse" gradientTransform="translate(17.2001 52.6205) scale(9.03067 9.0146)"><stop stop-color="#E5D31D"/><stop offset="1" stop-color="#B3A169"/></radialGradient><linearGradient id="paint27_linear_4778_24972" x1="17.2924" y1="38.7056" x2="18.9724" y2="40.4705" gradientUnits="userSpaceOnUse"><stop stop-color="#B0A63D"/><stop offset="0.21" stop-color="#868446"/><stop offset="0.98" stop-color="#B0A63D"/></linearGradient><radialGradient id="paint28_radial_4778_24972" cx="0" cy="0" r="1" gradientUnits="userSpaceOnUse" gradientTransform="translate(23.834 54.2356) scale(8.44724 8.43221)"><stop stop-color="#E5D31D"/><stop offset="1" stop-color="#B3A169"/></radialGradient><linearGradient id="paint29_linear_4778_24972" x1="25.9496" y1="42.1501" x2="26.9777" y2="43.5178" gradientUnits="userSpaceOnUse"><stop stop-color="#B0A63D"/><stop offset="0.21" stop-color="#868446"/><stop offset="0.98" stop-color="#B0A63D"/></linearGradient><linearGradient id="paint30_linear_4778_24972" x1="25.5173" y1="47.0292" x2="21.4101" y2="47.1112" gradientUnits="userSpaceOnUse"><stop stop-color="#E5D31D"/><stop offset="0.49" stop-color="#CBB94D"/><stop offset="1" stop-color="#B3A169"/></linearGradient><linearGradient id="paint31_linear_4778_24972" x1="30.8436" y1="35.4271" x2="45.9311" y2="35.4271" gradientUnits="userSpaceOnUse"><stop offset="0.32" stop-color="#B0A63D"/><stop offset="1" stop-color="#868446"/></linearGradient><linearGradient id="paint32_linear_4778_24972" x1="31.2906" y1="39.699" x2="31.2906" y2="42.0391" gradientUnits="userSpaceOnUse"><stop stop-color="#B0A63D"/><stop offset="0.21" stop-color="#868446"/><stop offset="0.98" stop-color="#B0A63D"/></linearGradient><radialGradient id="paint33_radial_4778_24972" cx="0" cy="0" r="1" gradientUnits="userSpaceOnUse" gradientTransform="translate(37.4293 36.8373) scale(7.52381 7.51042)"><stop stop-color="#E5D31D"/><stop offset="1" stop-color="#B3A169"/></radialGradient><linearGradient id="paint34_linear_4778_24972" x1="44.6951" y1="51.4973" x2="38.8649" y2="51.4973" gradientUnits="userSpaceOnUse"><stop stop-color="#E5D31D"/><stop offset="1" stop-color="#B3A169"/></linearGradient><linearGradient id="paint35_linear_4778_24972" x1="44.4579" y1="46.3671" x2="44.4579" y2="64.7378" gradientUnits="userSpaceOnUse"><stop offset="0.32" stop-color="#B0A63D"/><stop offset="1" stop-color="#868446"/></linearGradient><linearGradient id="paint36_linear_4778_24972" x1="41.1587" y1="41.4816" x2="44.0269" y2="45.6679" gradientUnits="userSpaceOnUse"><stop stop-color="#B0A63D"/><stop offset="0.21" stop-color="#868446"/><stop offset="0.98" stop-color="#B0A63D"/></linearGradient><linearGradient id="paint37_linear_4778_24972" x1="39.4399" y1="62.4838" x2="33.3621" y2="62.4838" gradientUnits="userSpaceOnUse"><stop offset="0.32" stop-color="#B0A63D"/><stop offset="1" stop-color="#868446"/></linearGradient><linearGradient id="paint38_linear_4778_24972" x1="37.1776" y1="47.6136" x2="29.2947" y2="45.4738" gradientUnits="userSpaceOnUse"><stop stop-color="#E5D31D"/><stop offset="1" stop-color="#B3A169"/></linearGradient><linearGradient id="paint39_linear_4778_24972" x1="42.4516" y1="36.4559" x2="33.118" y2="59.5874" gradientUnits="userSpaceOnUse"><stop offset="0.32" stop-color="#B0A63D"/><stop offset="1" stop-color="#868446"/></linearGradient><linearGradient id="paint40_linear_4778_24972" x1="49.1044" y1="2.53237" x2="48.6419" y2="3.43387" gradientUnits="userSpaceOnUse"><stop stop-color="#E3CF2D"/><stop offset="1" stop-color="#D6C33B"/></linearGradient><linearGradient id="paint41_linear_4778_24972" x1="48.6553" y1="3.45365" x2="48.4356" y2="4.35466" gradientUnits="userSpaceOnUse"><stop stop-color="#AB9C68"/><stop offset="1" stop-color="#F5E12D"/></linearGradient><linearGradient id="paint42_linear_4778_24972" x1="49.5976" y1="5.37277" x2="48.5025" y2="4.97347" gradientUnits="userSpaceOnUse"><stop stop-color="#D6C33B"/><stop offset="1" stop-color="#E3CF2D"/></linearGradient><linearGradient id="paint43_linear_4778_24972" x1="50.2419" y1="4.56831" x2="49.8191" y2="5.27706" gradientUnits="userSpaceOnUse"><stop stop-color="#D6C33B"/><stop offset="1" stop-color="#E3CF2D"/></linearGradient><linearGradient id="paint44_linear_4778_24972" x1="51.478" y1="6.39511" x2="50.1026" y2="4.34816" gradientUnits="userSpaceOnUse"><stop stop-color="#AB9C68"/><stop offset="1" stop-color="#F5E12D"/></linearGradient><linearGradient id="paint45_linear_4778_24972" x1="52.8758" y1="3.66315" x2="51.2536" y2="3.44451" gradientUnits="userSpaceOnUse"><stop stop-color="#AB9C68"/><stop offset="1" stop-color="#F5E12D"/></linearGradient><linearGradient id="paint46_linear_4778_24972" x1="50.7792" y1="3.19437" x2="52.1202" y2="3.32262" gradientUnits="userSpaceOnUse"><stop stop-color="#D6C33B"/><stop offset="1" stop-color="#E3CF2D"/></linearGradient><linearGradient id="paint47_linear_4778_24972" x1="50.8022" y1="2.3708" x2="50.8022" y2="0.891757" gradientUnits="userSpaceOnUse"><stop stop-color="#AB9C68"/><stop offset="1" stop-color="#F5E12D"/></linearGradient><linearGradient id="paint48_linear_4778_24972" x1="50.7393" y1="4.28339" x2="51.8833" y2="5.33919" gradientUnits="userSpaceOnUse"><stop stop-color="#D6C33B"/><stop offset="1" stop-color="#E3CF2D"/></linearGradient><linearGradient id="paint49_linear_4778_24972" x1="50.7498" y1="2.59286" x2="49.8111" y2="1.73017" gradientUnits="userSpaceOnUse"><stop stop-color="#AB9C68"/><stop offset="1" stop-color="#F5E12D"/></linearGradient><linearGradient id="paint50_linear_4778_24972" x1="46.2836" y1="5.94719" x2="54.968" y2="5.94719" gradientUnits="userSpaceOnUse"><stop stop-color="#56448F"/><stop offset="1" stop-color="#3C7CB7"/></linearGradient><linearGradient id="paint51_linear_4778_24972" x1="50.3552" y1="8.19074" x2="50.3552" y2="5.37092" gradientUnits="userSpaceOnUse"><stop stop-color="#56448F"/><stop offset="1" stop-color="#3C7CB7"/></linearGradient><linearGradient id="paint52_linear_4778_24972" x1="49.2555" y1="13.8299" x2="51.4963" y2="16.6222" gradientUnits="userSpaceOnUse"><stop stop-color="#B0A63D"/><stop offset="0.21" stop-color="#868446"/><stop offset="0.98" stop-color="#B0A63D"/></linearGradient><clipPath id="clip0_4778_24972"><rect width="101" height="101" fill="white" transform="translate(0 0.5)"/></clipPath></defs></svg>