<svg xmlns="http://www.w3.org/2000/svg" width="101" height="102" fill="none"><path fill="#231F20" d="m50.612 30.116 13.836-8.173L76.315 32.75s-3.788 8.308-3.788 16.215c0 0-.3 8.808 2.591 17.316 0 0-1.993 1.4-7.58.1 0 0-.116 6.993-5.785 9.008 0 0-9.013 2.366-11.866 8.407 0 0-.818-4.405-9.374-7.407 0 0-7.497-2.318-7.48-9.608 0 0-3.489 1.2-8.676-1.1 0 0 8.336-13.787-.117-33.766l11.684-10.574 14.685 8.774h.003Z"/><path fill="#41AD49" d="m26.436 32.361 9.705-8.735 14.276 8.425 13.688-8.28 9.989 9.163s-6.617 14.607-1.141 32.364c0 0-1.997 1.073-7.205-1.218 0 0 .856 8.236-5.566 9.954 0 0-7.205 2.29-10.202 6.73 0 0-1.286-3.15-7.35-5.154 0 0-9.989-2.453-7.634-11.312 0 0-2.64 2.077-8.205.358 0 0 7.294-12.12-.358-32.291l.003-.004Z"/><path fill="#231F20" d="M52.995 36.591c2.97.218 3.152 2.87 3.152 2.87.11.656.687.435.687.435-.254-.983.217-2.218.217-2.218 3.767 2.618 2.571 4.726 2.571 4.726l.688.8c-.038-1.635.831-2.58.831-2.58 2.658 2.736 1.413 4.871 1.413 4.871-.254.328-.072.618-.072.618.182.362.688 1.2.688 1.2.037-.544.76-.872.76-.872.432-.183 1.158-.656 1.158-.656 1.086 3.637-.416 4.772-.416 4.772-.182.362.196 1.521.196 1.521l1.667-.655c.289 3.853-2.21 4.181-2.21 4.181-.905.255-.51.983-.51.983l2.789-.255c-1.087 2.798-3.95 3.019-3.95 3.019-.254.072-.361.617-.361.617l2.355.835c-1.375 2.474-4.672 1.746-4.672 1.746l-.832.835c1.74.472 1.918 1.38 1.918 1.38-1.302 1.09-3.513.255-3.513.255-.76-.183-1.883.69-1.883.69 1.014 1.235 1.412 2.436 1.412 2.436-2.427.255-4.128-1.49-4.128-1.49-.615-.584-2.21.144-2.21.144.182.618 1.158 2.036 1.158 2.036-2.465.4-3.802-1.925-3.802-1.925-.797-1.018-1.667-.763-1.667-.763.76 2.436.509 2.908.509 2.908-2.864-.835-2.716-3.198-2.716-3.198-.072-1.2-2.028-1.852-2.028-1.852.326 2.836-.182 3.163-.182 3.163-2.355-1.78-1.846-4.581-1.846-4.581.11-.373-.11-.51-.11-.51-.306-.318-.433.072-.433.072-.832 1.528-1.34 1.6-1.34 1.6-2.211-2.546-.798-5.16-.798-5.16.326-.98-.434-1.274-.434-1.274-.941 1.308-1.595 1.49-1.595 1.49-1.302-3.49.544-4.509.544-4.509.36-.255.398-.545.398-.545.145-.583-.398-.11-.398-.11l-1.668 1.128-.47-1.235c-.87-2.29 2.498-3.309 2.498-3.309.29-.472-.216-.327-.216-.327-1.812.51-2.282 1.273-2.282 1.273l-.038-.145c-.182-3.781 2.715-4.144 2.715-4.144 1.124-.145 1.269-.617 1.269-.617-.798 0-1.812-.362-1.812-.362-.36-.073-.87 0-.87 0 1.159-3.343 4.057-2.18 4.057-2.18 1.45-.184 1.086-.874 1.086-.874-1.595-.834-2.716-.8-2.716-.8.217-.145.437-.617.437-.617.725-1.819 2.97-1.129 2.97-1.129l.797.363c.798.362 1.774-.218 1.774-.218-.038-.255-2.21-1.307-2.21-1.307 2.44-2.981 5.613-.145 5.613-.145.327.255 1.159-.11 1.159-.11-1.63-1.056-.581-2.909-.581-2.909l1.667.545c2.465.835 2.571 2.074 2.571 2.074.155.676 1.303.4 1.303.4-.47-.69-.072-2.398-.072-2.398l.014-.007Zm8.222 22.032s.327-.328 0-.69c0 0-1.581-1.79-.495-4.375 0 0 .237-.252.602.193.378.46.36.473.36.473l.23.224s-1.271-1.915-1.133-3.643c0 0 .47-.362 1.557.4 0 0 .433-.728-.616-1.162 0 0-2.282-.98-2.68-2.691 0 0-.145-.511 1.993-.218 0 0 .289-.835-.615-.873 0 0-2.355.363-3.441-1.78l1.629-.51s.144-.511-.58-.363c0 0-2.318 1.018-4.201-.545 0 0-.29-.4.36-.728l.654-.327s.687-.29-.035-.435c0 0-.264-.148-.725.29 0 0-.98.8-2.028.762 0 0-.471-.11-.98.183 0 0-.433-.255.038-1.018l.47-.835s.29-.4-.652-.255c0 0-1.197 1.746-3.187 2.58 0 0-.653.435-.36-.4 0 0 .11-.4 0-.983 0 0-.073-.438-.039-.873 0 0-1.107 3.181-3.44 2.874 0 0-.145-.11-.073-.583l.072-.472.073-.546s.137-.43-.327-.11l-.653.51s.327 2.108-.87 3.671c0 0-1.158-.29-1.413-1.6 0 0-.433.217-.11.872 0 0 1.413 1.746-.254 4.071 0 0-.182.363-.509-.145l-.326-.51S38.825 48 38.46 48.8c0 0-.19.372.392.772 0 0 1.53.939 1.203 3.409 0 0-.87.435-2.317-.29 0 0-.158 1.239.58 1.673 0 0 2.86 1.056 2.826 3.492 0 0-.543.438-2.21-.218 0 0 0 .328.942.511 0 0 2.393.328 3.551 2.253 0 0-.433.328-1.196.435 0 0-.877.051-.725.362 0 0 .072.328.653 0 0 0 2.31-.918 4.083 1.09 0 0-.278.217-.897.545l-.615.328-.399.255.145.11s2.787-.872 4.998-.434c0 0 .244.08.11.4 0 0-.275.763-1.269 1.308 0 0 .038.158.581.144 0 0 1.34-2.546 3.658-2.252 0 0 .831-.035.36.835 0 0-.776 1.262-.216 1.128 0 0 .43.02.47-.728 0 0-.11-.98 1.919-2.074 0 0 .516-.258.581.11 0 0 .182 1.056-.182 1.819 0 0 .47.217.797-.656 0 0-.58-1.707 1.413-3.27 0 0 .361-.325.433-.11l.11.327.399 1.056s.144.4.326.217c0 0 .104.055.038-.835 0 0-.398-2.618.76-3.526 0 0 .32-.2.797.763 0 0 .327.762.654.873h.003Z"/><path fill="#231F20" d="m39.492 86.985 29.59 7.95-2.78 1.503s-.162.162-.857-.027l-.694-.186s-25.63-7.007-26.565-6.714c0 0-7.892 5.13-18.566-5.558 0 0 4.723-.055 7.786.269 0 0 .162-.08.028-.214l-.134-.134-.268-.349s.04-.176-.51-.186c-.642-.017-.642.027-.642.027S13.976 84.495 8.998 73.11c0 0 .482-.08.935.107 0 0 1.204.43 2.675.752 0 0 3.479.752 4.52 1.504 0 0 .588.297.509.028l-.08-.27s-.346-1.476-2.674-2.014c0 0-10.835-1.398-11.986-14.715 0 0 5.967 3.895 6.69 4.7 0 0 .401-.804-.83-1.746l-1.23-.939S-1.2 54.577 1.53 44.696l.515-1.69s.055-.215.402.213l.348.431c1.997 2.643 1.952 2.684 3.014 4.51 0 0 .186.213.24-.056 0 0-7.304-11.223-.16-19.71 0 0 1.23 3.33 1.605 5.907 0 0 .615-.055.32-1.397l-.296-1.342s-1.392-6.231-.268-9.426c0 0 1.337-4.754 5.43-8.618 0 0 .627 1.673-.48 8.432 0 0 .027.483.32.055 0 0 .16-.186.213-.724l.055-.539S14.529 7.964 25.58 7.187c0 0 .536-.151.24.349 0 0-.99 2.039-.883 2.829 0 0 6.232-6.051 12.361-4.654 0 0-3.317 6.203-9.817 8.86 0 0 .615.348 3.372.055 0 0-2.54 8.028-10.515 9.425 0 0-1.337 4.968-2.248 6.12 0 0-2.998 3.733-3.132 4.002 0 0-.027.214.24.107l.269-.107.777-.455s.828 4.216-2.915 10.902c0 0-.055.296.295-.08 0 0 .884-.938 1.258-.938 0 0 1.097 5.047.028 11.868l.106.055s.43-.859.56-.938c0 0 6.233 6.82 3.72 15.76 0 0-.186.375.107.455 0 0 .587.296.776.403 0 0 .454.162.348-.186 0 0-.402-1.69-.213-3.57 0 0 .268-1.853 0-3.223 0 0-.135-.404 0-.431 0 0-.028-.321.615.43l.643.753s5.482 5.72 6.42 14.231c0 0 .561.538 1.31.483 0 0 .269.08.028-.348 0 0-.75-1.667-1.096-3.06 0 0-.43-1.798-.829-2.633 0 0-.402-.562.107-.431l.508.135s10.3 2.656 11.478 13.64l-.007-.01Z"/><path fill="#FFF200" d="M53.957 39.182c-.302-.787-.302-1.307-.302-1.307-.017-.449.09-.449.09-.449 2.069.483 1.855 2.83 1.855 2.83.275.182.626.392.626.392.32.27 1.069.556 1.069.556l.23.072c.23.073-.034-1.576-.034-1.576l-.017-.321c-.017-.321.072-.304.072-.304 2.014 1.021 1.392 2.88 1.392 2.88-.106.518.145.68.145.68.161.142 1.302 1.398 1.302 1.398l.162.214c.162.214.196.09.196.09.09-2.24.392-2.505.392-2.505.106-.36.34.09.34.09 1.66 2.183.447 3.58.447 3.58-.268.304.09.825.09.825.233.47.532 1.132.532 1.132.248.645.664.98.664.98.677-1.522 1.426-1.629 1.426-1.629.179-.017.179.573.179.573l.09 1.145c.089 1.145-.912 1.666-.912 1.666l.055 1.09c.072 1.253.196 1.898.196 1.898.196 0 .822-.59.822-.59.464-.376.821-.145.821-.145.055 2.47-1.55 2.633-1.55 2.633-.89.107-.98.752-.98.752l-.302 1.504c.161-.035 1.767-.359 1.767-.359l.374-.072c.375-.073.251.162.251.162-.766 1.577-2.406 1.504-2.406 1.504-1.107.162-1.677 1.842-1.677 1.842.072.125.32.142.32.142.553-.035 1.57.269 1.57.269l.285.072c.286.073.107.214.107.214-.34 1.163-3.334.86-3.334.86l-.626.465-.605.431c-.605.431-.856.932-.856.932 1.767.034 1.98.717 1.98.717-.57.466-1.695.107-1.695.107-.43-.124-1.443-.252-1.443-.252-.41.342-1.23.59-1.23.59l-.589.214c-.588.214-.481.304-.481.304 1.286 1.252 1.354 1.932 1.354 1.932-2.175.197-2.87-1.577-2.87-1.577-1.158-.017-2.908.321-2.908.321l-.34.017c-.34.018-.124.304-.124.304l.66 1.29.106.142c.107.141-.017.179-.017.179-.783.107-1.694-1.2-1.694-1.2l-.465-.556c-.464-.555-.98-.573-.98-.573l-1.48-.359-.286-.106c-.285-.107-.055.393-.055.393.928 1.7.715 2.239.715 2.239-1.55-.287-1.712-2.846-1.712-2.846 0-.27-.32-.394-.32-.394a209.03 209.03 0 0 1-2.712-1.773c.392 2.167.251 2.83.251 2.83-.017.213-.124.161-.124.161-1.533-1.18-.838-3.115-.838-3.115.34-.59-.18-.983-.18-.983-.604-.573-.91-.877-.91-.877-.268-.465-.43-.376-.43-.376-.302 2.15-.98 2.06-.98 2.06-1.264-1.397-.57-3.419-.57-3.419.626-1.235-.677-3.043-.677-3.043-.801 1.825-1.392 1.504-1.392 1.504-.286-.717-.035-1.7-.035-1.7.072-.628.677-.932.677-.932.554-.393.571-1.342.571-1.342l-.107-2.022c-1.46 2.257-2.248 1.753-2.248 1.753-.856-1.09.57-1.932.57-1.932.214-.162 1.534-.983 1.534-.983.677-.41.677-1.29.677-1.29l.055-.36c.055-.358-.57.035-.57.035-.43.252-1.712.697-1.712.697l-.358.09c-.357.09-.25-.145-.25-.145.34-2.087 2.959-2.308 2.959-2.308.626-.163.91-.752.91-.752.125-.466.448-.77.448-.77.14-.252 0-.517 0-.517-1.605.697-2.73.09-2.73.09.554-1.701 2.82-.984 2.82-.984.642.107 1.085-.376 1.085-.376.162-.124.571-.662.571-.662l.32-.321c.32-.32.536-.662.536-.662-2.606-.073-2.747-.735-2.747-.735.447-1.235 2.231-.645 2.231-.645l1.589.5c.587.107 1.14-.359 1.14-.359.142-.162.571-.304.571-.304.18-.034.482-.269.482-.269.268-.107-.392-.341-.392-.341-.41-.197-1.801-.966-1.801-.966-.214-.073-.145-.107-.145-.107 1.018-1.36 2.891-.124 2.891-.124l.801.393c.8.393 1.23.252 1.23.252.447-.107 1.125-.09 1.125-.09.515-.017.873-.27.873-.27-1.946-1.448-1.265-2.435-1.265-2.435.553.252 1.605.59 1.605.59 1.499.431 1.588 1.646 1.588 1.646.072.269.43.517.43.517.873-.034 2.337.214 2.337.214.055-.214-.072-.555-.072-.555l-.024.01Zm-1.292 1.235s-1.987-.804-2.492.024c0 0-.482 1.353-1.943 1.79 0 0-.821-.686.344-2.2 0 0-1.805-.183-2.355 1.4 0 0-.433 1.698-1.53 1.605 0 0-.023-.552.093-1.077l.114-.528s.069-.344.045-.551c0 0-2.606.941-2.764 2.063 0 0 .684 1.076-.162 2.477 0 0-.732.113-.89-1.974 0 0-1.258.804-1.279 1.79 0 0-.044.39.251.598 0 0 .915.483.114 2.96 0 0-.413-.07-.777-.756l-.684-1.1s-.207.527-.389.872c0 0-.684 1.24-.024 1.995 0 0 1.372.962 1.097 2.615 0 0-.801.459-2.149-1.332l-.092 2.156s-.093 1.49 1.027 1.698c0 0 1.943.503 2.104 2.318 0 0-.8.345-2.492-1.17 0 0 0 .366.25.85 0 0 .345.482.345 1.1 0 0 .024.62.752.71 0 0 1.142-.024 1.784.366 0 0 1.028.3 1.234.918 0 0-.044.434-2.285.276l1.165 1.445s.227.528.938.252c0 0 1.21-1.1 3.2.07 0 0 .276.068.07.206l-.207.138s-1.141.552-2.08.687c0 0 1.028 1.238 2.011 1.1 0 0 2.035-1.01 3.52-.503 0 0 .251.069-.068.276 0 0-.822.734-1.736.917 0 0 .777.297 1.258.46l.481.158s.526.114.983.024c0 0 .615-2.318 2.675-2.225 0 0 .32-.045.161.207l-.161.252s-.684 1.055-.89 1.47c0 0 1.44.227 2.306-.415 0 0 .295-1.904 1.347-2.2 0 0 .365.251-.044 1.169 0 0-.32.666-.138.986 0 0 .846-.113 2.217-1.055 0 0 .296-.435.045-.78 0 0-.457-.918.344-1.697l.388-.435s.206-.183.275.162c0 0 .23.78.114 1.79l1.53-1.124s.068-.825-.025-1.332c0 0-.206-1.145.069-1.628 0 0 .275-.71.526-.231 0 0 .57.873.615 1.466 0 0 .158.138.296-.07l.137-.206s.433-.735.664-1.007c0 0 .295-.504-.138-1.077l-.433-.573s-.388-.276-.295-2.018c0 0-.024-.483.295-.183 0 0 .354.29.526.552 0 0 .55.873.732.987 0 0 .182-.528.251-.918 0 0 .069-.552.162-.686 0 0-1.128-1.328-1.44-2.867 0 0-.114-.435.412-.07l.526.367 1.007.803s.23-1.628-.433-2.935c0 0-2.423-1.056-3.018-2.18 0 0 .32-.415 1.141-.07 0 0 .801.345 1.004.321 0 0-.32-.894-.502-1.352 0 0-.206-.183-.227-.552 0 0-.23-.756-.732-.735l-.502.024-1.028.093s-.677.107-1.072-.483c0 0-.193-.286 0-.345l.227-.069 1.488-.37-1.261-1.396s-.413-.093-.89.044l-.482.139s-1.2.524-2.056-.025c0 0-.295-.176-.024-.365 0 0 .664-.78 2.056-.849 0 0-.296-.414-1.396-.735 0 0-1.12-.445-1.691-.093-.426.266-.646.442-.646.442s-.702.59-1.502.476c0 0-.344.024-.093-.39 0 0 .344-.666.8-1.125v-.007Z"/><path fill="#231F20" d="M52.73 47.11c0-.065.003-.103.003-.103s-.01.08-.003.103Z"/><path fill="#231F20" d="M57.735 51.354s-.289-1.722-2.032-1.987l.75-1.235s-.722-.697-1.124-.753l-.801 1.129s-.296-.673-.268-1.37c0 0 .079-.724-.32-1.29 0 0-1.124 1.128-1.176 1.235-.017.038-.027.038-.03.024 0 .127.003.355.058.62l.079.405.536 2.363.08.483s-.162.297-.403.134c0 0-.32-.455-.935.163 0 0-.481-.804-.722-1.315 0 0 .028-.376-.268-.27l-.295.108s-.75.055-.67.214l.078.162s.08.673.08.724c0 0 .16.563-.296.404 0 0-.375-.404-.643.107 0 0-.402.32-.777-.431l-.134-.404s-1.176.966-3.479.59l-.027.297s.8 1.666-.588 2.015c0 0-1.712.32-1.392-2.55 0 0-.392.259-.695.994 0 0-.935 2.149.75 3.222 0 0 2.007.886 3.506-2.015 0 0 .213-.697.883-.348 0 0 .695.51 1.31.296 0 0 .347-.296.588-.079 0 0 .443.297 1.052-.107 0 0 .766-.348 1.248-.269 0 0 .233.038.54.076.023 0 .05.007.075.007l-.399.455-.856-.214-.454.431.454.511s.347 0 .454-.107l.402-.32s.509.213.347.482c0 0-2.22 1.69-3.88-.269 0 0-.454 1.88.347 2.47 0 0 .605.483 1.718.214l6.707-3.277s.839-.355.615-1.718l.007-.007Zm-3.932 1.639s-.537.376-.884.455c0 0-.027-.607-.629-.749.3.035.646.062.897.052 0 0 .829.135 1.527-.697l.24.214s-.588.297-1.151.725Zm1.1-3.223s-.269-.348-.241-.966c0 0 .722.404.694.645l-.453.321Z"/><path fill="#FFF200" d="m53.163 47.355.588-.617s.134-.08.186.858c0 0 0 .618.268 1.532 0 0 1.069 2.415-.43 3.167 0 0-.175.066-.79-.134 0 0-.681-.335-1.032.162 0 0-.268.349-.856-.186 0 0-1.069.804-1.499.455 0 0-.333-.214-.8-.027 0 0-.802.483-1.272-.363 0 0-.736.121-.95.121 0 0-1.044 2.498-2.729 2.605 0 0-2.175-.152-1.275-2.767 0 0 .09.566.34.966 0 0 1.152 2.028 2.73-.404v-1.049s1.444.214 2.516-.51c0 0 .694 1.156 1.258.724 0 0 .43-.576.68-.2 0 0 .671.362.657-.441-.013-.728-.055-.725-.055-.725l-.027-.297s.577-.33.67.297c.08.552.134.645.134.645s.43 1.315 1.124.242c0 0 0-.297.296 0 0 0 .402.538.777.027l.32-.43-.829-3.651Zm3.933 5.289-.722.348c-.482.242-2.891 1.584-2.891 1.584l-.643.32c-.643.322-1.953.86-1.953.86l-.855.241c-.856.242-1.07-.214-1.07-.214-.374-.296-.374-.672-.374-.672l.027-.539c.055-.241.296.028.296.028 1.505.818 3.585-.32 3.585-.32 1.152-.915 3.905-2.202 3.905-2.202.028-.348-.694-.241-.694-.241-.722.055-.67-.994-.67-.994.15-1.315 1.23-.752 1.23-.752 1.66.966.829 2.55.829 2.55v.003Zm-1.097-1.801s0-.27-.32-.297c0 0-.402.618.028.725l.295-.214v-.214H56Zm-3.534 2.47c.028-.186-.213-.241-.213-.241l-.055.214c.134.241.268.027.268.027Zm-1.444.083s.08.27.186.162l.107-.107s-.24-.297-.296-.055h.004Zm4.548-4.699.241-.483c-.107-.455-.454-.08-.454-.08l-.161.432.374.134v-.003Z"/><path fill="#61876A" d="M11.212 48.08s1.124-1.29 1.364-2.257l-1.416 1.584s-.347.186.055.673h-.003Z"/><path fill="#41AD49" d="M25.364 11.83s3.664-5.019 9.872-5.074c0 0-3.612 4.95-8.373 6.848 0 0-.162-.297.402-1.263 0 0 .56-.886.107-.803l-1.791.32-.213-.027h-.004ZM16.162 22.653s5.565-2.256 8.453-5.934c0 0 1.526-.645 4.094-.697 0 0-3.104 7.815-12.547 6.631ZM15.708 21.308s2.203-7.08 9.632-8.218c0 0-1.55 5.478-9.632 8.218ZM23.44 8.77s-7.866 1.988-9.176 11.172c0 0 .482-.242.801-.86 0 0 1.152-3.032 5.191-5.613 0 0 3.21-2.149 3.183-4.698ZM11.373 16.826s-4.95 5.127-2.836 12.89c0 0 .186-1.236.454-1.746 0 0 2.864-5.372 2.382-11.144ZM14.45 21.66s-4.173 3.357-4.761 9.342c0 0 .588-.241.828-.59 0 0 .241-.162.269.187l.027.348s.027.697.213.538l.186-.162s3.72-3.25 3.238-9.667v.004ZM15.815 24.154v.86l1.392-.805-1.392-.055ZM11.872 35.297s6.03-4.643 6.779-10.015c0 0-.973-.09-3.328 1.763 0 0-1.605 3.822-3.96 5.81 0 0-.162.027-.055.562l.107.538s.295 1.073.453 1.342h.004ZM5.327 31.11s-4.173 6.175 1.175 14.955l.107-.562s-1.152-2.55-.694-5.424c0 0 1.364-5.102-.588-8.966v-.004Z"/><path fill="#41AD49" d="M9.713 33.151s-3.932 6.014-2.327 10.93l.347-.618s.454.08.777.538c0 0 .268.321.56.483 0 0 3.345-3.57.643-11.33v-.003Z"/><path fill="#41AD49" d="M15.117 35.515s.079 6.9-4.655 11.115c0 0-1.175-.617-.48-1.449 0 0 1.285-1.29 1.47-3.008 0 0 .241-3.65 1.152-4.671 0 0 .8-1.263 2.516-1.987h-.003ZM13.862 60.217s.536-2.094.536-3.115l-.99 2.335s-.185.349.055.538l.241.187.162.055h-.004ZM12.174 58.764l.134.135s3.318-4.671 1.819-13.103c0 0-1.712 1.29-2.382 4.054 0 0 1.017 4.026.43 8.914ZM10.356 56.967l.75.645s1.443-6.148-2.703-11.761c0 0-.347-.455-.508.055 0 0-2.166 5.154 1.846 12.675l.615-1.61v-.004ZM2.518 45.447s-2.014 9.04 5.913 14.338c0 0 .213-.241-.107-.886 0 0-.883-2.043-1.285-3.437l-.403-1.397s-1.55-6.365-4.121-8.618h.003ZM15.787 56.536s4.761 6.337 2.516 13.665l-.48-.08s-.451-2.763-1.16-4.574c-.694-1.773-.766-1.925-.766-1.925s-1.213-2.39-.75-4.537l.644-2.55h-.004ZM10.944 59.275s-1.66 6.31 4.334 10.981l-.161-.455s-.347-.59.481-.376l.615.186s.348.162.24-.269l-.106-.431s-1.175-6.714-5.403-9.64v.004ZM4.31 60.886s.587 2.121.749 3.008c0 0 1.66 5.558 9.497 8.108l-2.327-2.874s-.643-.86-.91-1.584c0 0-1.926-3.947-7.01-6.658ZM21.325 66.202s5.431 6.472 5.538 12.216c0 0-.643-.993-2.757-3.519 0 0-2.97-3.301-2.809-5.906 0 0 .162-1.442.028-2.79ZM17.018 71.44s1.98 6.9 8.453 9.076c0 0-.482-1.556-.454-1.797l.615-.107s-2.22-3.357-3.451-4.402c0 0-1.819-1.825-5.163-2.767v-.004ZM25.285 82.124s-8.694 1.087-13.833-7.397c0 0 3.507-.041 7.278 2.832 0 0 5.163 3.706 6.555 4.565ZM38.313 88.461s-1.286-6.203-11.825-8.297c0 0 .694 5.344 11.825 8.297ZM37.993 85.025s-1.444-7.707-9.174-10.312c0 0 .587 3.464 2.327 5.503 0 0 2.808.807 6.847 4.806v.003ZM36.282 89.242s-6.556 2.497-13.884-4.161c0 0 4.602-.966 10.649 2.632 0 0 .32.321 2.031.86 0 0 .884.186 1.203.672v-.004ZM39.784 88.14l26.806 7.09s-.56.673-1.365.404l-25.63-6.872s-.43.055-.268-.376c0 0 .028-.483.454-.242l.003-.003Z"/><path fill="#231F20" d="m89.002 23.13-.515-.36s-.674-12.188-12.262-15.045l1.306 4.05-.12.159S71.481 4.748 65.27 5.9c0 0 .47 5.23 7.153 8.722l-.192.13s-.832-.358-1.623-.237c0 0 .99 6.51 10.643 10.201v.2s-.674-.238-.437.238c0 0 3.005 9.043 8.9 12.465 0 0 .285.49-.069.57 0 0-3.042-2.616-4.448-3.31 0 0-1.179 7.19 5.624 13.939 0 0-.237.873-.753 1.31 0 0-1.306-4.208-3.44-4.96 0 0-2.53 8.259 1.501 15.604 0 0-.553.555-.87.755 0 0-.237-.952-.237-1.507 0 0-.395-3.095-1.622-3.612 0 0-4.905 5.32-4.232 15.324 0 0-.357.36-.832.28 0 0 .396-3.216-.752-6.234 0 0-3.441 4.288-3.758 4.881 0 0-2.98 3.633-3.165 9.012 0 0-.475 0-.674.117 0 0-.474.2-.79-.08 0 0 1.66-2.262 2.134-6.313 0 0-7.594 1.39-11.829 12.507 0 0-.216 1.22-.99 1.27l-20.016 4.764s-8.071 1.904-8.388 2.183c0 0 2.293 1.629 2.888 2.263l26.82-6.789s12.147 4.806 18.75-5.002c0 0-1.027-.08-1.106-.121 0 0-2.018-.556-2.255-.556 0 0 5.737-.914 8.425-2.342 0 0 4.473-2.446 5.538-6.314 0 0-1.86-.952-7.593.835 0 0-.237-.08.079-.555l.316-.476.278-.518s3.799.914 9.89-4.844c0 0 3.6-2.977 3.957-8.1 0 0 .295-1.142.058-1.894 0 0-1.643 1.814-2.472 2.173 0 0-2.729 1.27-4.152 2.698 0 0-.237-.517.041-.952 0 0 .158-.2.158-.397v-.117s2.455-.317 4.827-3.495c0 0 4.826-6.234 3.045-13.934 0 0-1.873 1.352-4.118 4.198 0 0-.388-.666-.31-1.221 0 0 7.556-7.424.95-18.181 0 0-1.86 1.707-2.255 4.96 0 0-.554.28-.238-.517 0 0 4.827-11.512-4.547-19.85 0 0-.791 3.494-.08 8.058Z"/><path fill="#41AD49" d="M76.329 12.504S71.513 6.3 66.803 7.187c0 0 1.124 4.727 8.24 7.383l-.67-2.2s.402-.163 1.045 0c0 0 .587.213.91.134ZM77.989 9.574s7.68 1.96 9.443 12.054l-.155-.058s-1.616-3.933-7.93-7.96c0 0-.956-.924-1.358-4.04v.004Z"/><path fill="#41AD49" d="M85.668 23.002s-.027-.538-.213-1.342c0 0-.24-.752.375-.59 0 0-2.702-5.855-9.818-6.955 0 0 .952 4.185 9.66 8.887h-.004Z"/><path fill="#41AD49" d="M72.155 15.912s3.933.697 4.627 1.315c0 0 4.789 5.02 8.694 6.713 0 0 .43.028.185.725 0 0-9.683-.966-13.51-8.753h.004ZM85.747 26.331s.08-.404-.56-.376c0 0 .333.404.56.376ZM92.113 33.528s.616-1.69-.213-3.25c0 0-2.007-5.772-5.029-7.197 0 0-.134 3.705.43 4.996 0 0 .615 1.638 1.767 2.953l1.364 1.825s.134-.86.375-.994c0 0 .107.055.777 1.073 0 0 .32.618.536.59l-.007.004ZM93.478 31.675s1.767-9.533-3.637-14.259c0 0-.23 1.239 0 2.767 0 0 .055.617.107 1.314 0 0 0 2.067 1.55 5.048 0 0 1.286 2.39 1.98 5.13ZM90 35.998s.56-.939.185-1.505c0 0-3.05-4.053-4.04-6.175 0 0-.828-.618-1.336-.994 0 0-.677-.676-2.114-.914 0 0 1.66 5.962 7.304 9.584v.004ZM91.42 34.787s5.296 3.409 2.674 11.306c0 0-.083.11-.324-.59 0 0-.185-.376-.48 0l-.297.376-.295.376s-2.65-4.84-1.286-11.464l.007-.004Z"/><path fill="#41AD49" d="M95.967 33.151s4.2 8-1.124 13.935c0 0 1.416-1.825.8-7.6 0 0-.776-4.672.32-6.338l.004.003ZM91.285 47.57s-1.605-3.544-1.605-7.815c0 0-.56-.86-1.258-1.235 0 0-1.045-.673-1.685-1.342 0 0-.44 5.458 4.548 10.391ZM93.292 47.648s3.318 5.745-1.739 12.19c0 0-.605-.653-1.248-.253 0 0-.182.152-.289-.169 0 0-1.337-6.668 3.276-11.771v.003Z"/><path fill="#41AD49" d="M98.724 47.755s1.052 9.66-6.525 14.004c0 0-.37.152-.35-.58l.079-.269s2.227-1.118 3.451-7.652c0 0 .454-3.626 3.345-5.506v.003ZM88.824 59.41s-2.816-4.368-1.578-12.082c0 0 1.767 1.02 2.114 4.912 0 0-1.151 4.323-.536 7.17ZM34.374 94.606l26.128-6.362s.818-.41.98.452l-26.29 6.69-.818-.78ZM63.403 84.839s2.74-2.953 6.624-4.595c0 0 2.046-2.916 2.046-5.417 0 0-6.666 3.364-8.67 10.012ZM65.325 89.355s6.067 2.194 13.083-3.654c0 0-3.393-1.6-8.013 1.273 0 0-2.574 1.888-5.07 2.38ZM73.338 84.308l1.35-.328-1.106-.124-.244.452ZM74.524 82.213v.37s1.921.124 3.434-.042c0 0 7.524-.203 11.285-5.992 0 0 .041-.245-.492-.166 0 0-4.743-.203-9.893 4.637 0 0-1.595 1.725-4.334 1.19v.004ZM62.668 87.878s.385-2.95 6.827-5.95c0 0 3.23-1.643 4.334-.698 0 0-1.206 3.185-5.888 5.869 0 0-3.517 2.049-5.273.78ZM78.94 73.144s-4.049 4.474-4.904 5.91c0 0-.877-4.199 4.946-10.833 0 0 .285 1.766.124 2.953 0 0-.327 1.476-.165 1.97Z"/><path fill="#41AD49" d="M83.846 72.16s-4.826.163-8.872 7.673c0 0 1.042-.106 0 1.56l.485.058s6.796-2.07 8.387-9.294v.004ZM85.276 58.25s-3.833 4.65-2.904 12.927c0 0 .165.166.326.083 0 0 .492-3.364 2.087-5.869 0 0 2.74-4.309.491-7.141ZM90.388 61.286s-5.26 3.005-6.05 9.519c0 0 1.186-.41 1.145.165-.042.576 0 .083 0 .083l-.042.493s5.356-3.322 4.947-10.26ZM96.317 62.639s-2.413 1.273-2.983 1.683c0 0-2.087 1.273-4.17 5.006 0 0-1.471 2.708-3.558 3.899 0 0 1.554.738 6.583-3.285 0 0 4.252-3.363 4.128-7.303Z"/></svg>